<svg width="148" height="48" viewBox="0 0 148 48" fill="none" xmlns="http://www.w3.org/2000/svg">
<rect x="0.5" y="0.5" width="147" height="47" rx="7.5" fill="white"/>
<path d="M33.12 23.0109C33.0914 19.92 35.7262 18.4162 35.8466 18.3462C34.3545 16.2335 32.0416 15.9449 31.2289 15.9218C29.2864 15.7233 27.4022 17.0506 26.4127 17.0506C25.4034 17.0506 23.8797 15.941 22.2374 15.9736C20.124 16.0053 18.147 17.1935 17.0627 19.0386C14.8249 22.8008 16.4939 28.3296 18.6378 31.3706C19.7103 32.8599 20.9635 34.5229 22.6038 34.4644C24.2085 34.4001 24.8079 33.4708 26.7445 33.4708C28.6633 33.4708 29.2262 34.4644 30.8991 34.427C32.6213 34.4001 33.7056 32.9309 34.7406 31.4281C35.9799 29.7211 36.4777 28.0399 36.4974 27.9536C36.4569 27.9402 33.1526 26.7155 33.12 23.0109Z" fill="#333333"/>
<path d="M29.9615 13.9214C30.8246 12.8732 31.4151 11.4472 31.2512 10C30.002 10.0537 28.4397 10.8391 27.54 11.8643C26.7441 12.7677 26.033 14.2484 26.2167 15.6409C27.62 15.7426 29.0608 14.9533 29.9615 13.9214Z" fill="#333333"/>
<path d="M56.345 34.2504H54.1023L52.8738 30.5016H48.6037L47.4334 34.2504H45.25L49.4806 21.4878H52.0936L56.345 34.2504ZM52.5035 28.9288L51.3925 25.5962C51.275 25.2558 51.0547 24.454 50.7298 23.192H50.6903C50.561 23.7348 50.3526 24.5365 50.0662 25.5962L48.975 28.9288H52.5035Z" fill="#333333"/>
<path d="M67.2235 29.5358C67.2235 31.1009 66.788 32.338 65.917 33.2462C65.1368 34.0546 64.168 34.4584 63.0116 34.4584C61.7634 34.4584 60.8667 34.023 60.3206 33.1522H60.2811V38H58.1757V28.0771C58.1757 27.0931 58.149 26.0833 58.0977 25.0476H59.9493L60.0668 26.5062H60.1063C60.8084 25.4072 61.874 24.8586 63.304 24.8586C64.4218 24.8586 65.3551 25.2873 66.1016 26.1456C66.8502 27.0049 67.2235 28.1346 67.2235 29.5358ZM65.0786 29.6106C65.0786 28.7148 64.8712 27.9764 64.4544 27.3952C63.9992 26.7891 63.3879 26.4861 62.6216 26.4861C62.1021 26.4861 61.6301 26.6549 61.2084 26.9877C60.7857 27.3233 60.5092 27.7616 60.3799 28.3044C60.3147 28.5576 60.2821 28.7647 60.2821 28.9277V30.4622C60.2821 31.1316 60.4934 31.6964 60.9161 32.1577C61.3388 32.619 61.8878 32.8491 62.5633 32.8491C63.3563 32.8491 63.9735 32.5519 64.4149 31.9592C64.8573 31.3656 65.0786 30.583 65.0786 29.6106Z" fill="#333333"/>
<path d="M78.1248 29.5358C78.1248 31.1009 77.6893 32.338 76.8173 33.2462C76.0382 34.0546 75.0694 34.4584 73.913 34.4584C72.6647 34.4584 71.7681 34.023 71.2229 33.1522H71.1834V38H69.078V28.0771C69.078 27.0931 69.0514 26.0833 69 25.0476H70.8516L70.9692 26.5062H71.0086C71.7098 25.4072 72.7754 24.8586 74.2063 24.8586C75.3232 24.8586 76.2564 25.2873 77.005 26.1456C77.7506 27.0049 78.1248 28.1346 78.1248 29.5358ZM75.9799 29.6106C75.9799 28.7148 75.7715 27.9764 75.3548 27.3952C74.8995 26.7891 74.2902 26.4861 73.5229 26.4861C73.0025 26.4861 72.5314 26.6549 72.1088 26.9877C71.6861 27.3233 71.4106 27.7616 71.2812 28.3044C71.217 28.5576 71.1834 28.7647 71.1834 28.9277V30.4622C71.1834 31.1316 71.3948 31.6964 71.8155 32.1577C72.2381 32.618 72.7872 32.8491 73.4647 32.8491C74.2577 32.8491 74.8749 32.5519 75.3163 31.9592C75.7587 31.3656 75.9799 30.583 75.9799 29.6106Z" fill="#333333"/>
<path d="M90.3094 30.6713C90.3094 31.7569 89.9213 32.6402 89.1421 33.322C88.2859 34.0672 87.0939 34.4393 85.5623 34.4393C84.1481 34.4393 83.0144 34.1746 82.1562 33.6443L82.6441 31.9401C83.5684 32.4829 84.5826 32.7552 85.6877 32.7552C86.4807 32.7552 87.0979 32.5807 87.5413 32.2335C87.9827 31.8864 88.2029 31.4203 88.2029 30.8391C88.2029 30.3213 88.0212 29.8849 87.6568 29.531C87.2944 29.1772 86.689 28.8482 85.8437 28.5442C83.5428 27.7108 82.3933 26.49 82.3933 24.8846C82.3933 23.8355 82.7962 22.9752 83.603 22.3058C84.4069 21.6355 85.4793 21.3008 86.8204 21.3008C88.0163 21.3008 89.0098 21.5031 89.8028 21.9069L89.2764 23.5736C88.5357 23.1824 87.6983 22.9867 86.7611 22.9867C86.0205 22.9867 85.4418 23.1641 85.027 23.5171C84.6765 23.8326 84.5007 24.2171 84.5007 24.6727C84.5007 25.1771 84.7011 25.5943 85.104 25.9223C85.4546 26.2253 86.0916 26.5533 87.0159 26.9072C88.1467 27.3493 88.9772 27.8662 89.5114 28.4589C90.0437 29.0496 90.3094 29.789 90.3094 30.6713Z" fill="#333333"/>
<path d="M97.2712 26.5821H94.9505V31.0501C94.9505 32.1865 95.3593 32.7543 96.179 32.7543C96.5552 32.7543 96.8673 32.7226 97.1141 32.6593L97.1724 34.212C96.7576 34.3625 96.2115 34.4383 95.5351 34.4383C94.7036 34.4383 94.0538 34.1918 93.5847 33.6999C93.1176 33.2069 92.8825 32.3803 92.8825 31.2189V26.5801H91.5V25.0457H92.8825V23.3607L94.9505 22.7546V25.0457H97.2712V26.5821Z" fill="#333333"/>
<path d="M107.743 29.5732C107.743 30.9877 107.326 32.1491 106.495 33.0573C105.623 33.9923 104.465 34.4584 103.022 34.4584C101.632 34.4584 100.525 34.0105 99.6993 33.1148C98.8737 32.2191 98.4609 31.0884 98.4609 29.7257C98.4609 28.2996 98.8856 27.1315 99.7378 26.2233C100.588 25.3142 101.736 24.8596 103.178 24.8596C104.569 24.8596 105.688 25.3075 106.532 26.2042C107.34 27.074 107.743 28.197 107.743 29.5732ZM105.558 29.6393C105.558 28.7906 105.372 28.0627 104.993 27.4557C104.552 26.7211 103.921 26.3547 103.103 26.3547C102.257 26.3547 101.614 26.722 101.173 27.4557C100.794 28.0637 100.608 28.8031 100.608 29.6777C100.608 30.5264 100.794 31.2543 101.173 31.8604C101.628 32.595 102.264 32.9614 103.085 32.9614C103.888 32.9614 104.519 32.5874 104.975 31.8412C105.363 31.2227 105.558 30.4871 105.558 29.6393Z" fill="#333333"/>
<path d="M114.586 26.8457C114.377 26.8083 114.155 26.7891 113.922 26.7891C113.181 26.7891 112.609 27.0605 112.206 27.6043C111.855 28.0838 111.679 28.6899 111.679 29.4216V34.2503H109.575L109.595 27.9457C109.595 26.885 109.568 25.9193 109.516 25.0485H111.349L111.427 26.8093H111.485C111.707 26.2041 112.058 25.717 112.537 25.3516C113.007 25.0226 113.513 24.8586 114.059 24.8586C114.254 24.8586 114.43 24.8721 114.586 24.896V26.8457Z" fill="#333333"/>
<path d="M124.004 29.2135C124.004 29.5798 123.979 29.8886 123.927 30.1408H117.61C117.635 31.05 117.94 31.7453 118.527 32.2248C119.059 32.6534 119.747 32.8683 120.593 32.8683C121.528 32.8683 122.381 32.7234 123.149 32.4329L123.478 33.8522C122.582 34.232 121.523 34.4209 120.301 34.4209C118.832 34.4209 117.679 34.0009 116.839 33.1617C116.002 32.3226 115.582 31.1957 115.582 29.7821C115.582 28.3945 115.972 27.2388 116.753 26.3172C117.571 25.3333 118.676 24.8413 120.066 24.8413C121.432 24.8413 122.466 25.3333 123.168 26.3172C123.724 27.0988 124.004 28.0655 124.004 29.2135ZM121.996 28.6831C122.01 28.077 121.873 27.5534 121.587 27.1113C121.223 26.5426 120.663 26.2587 119.909 26.2587C119.221 26.2587 118.661 26.5359 118.234 27.0921C117.883 27.5342 117.675 28.0646 117.61 28.6822H121.996V28.6831Z" fill="#333333"/>
<path d="M51.807 13.6365C51.807 14.7653 51.4584 15.6149 50.7622 16.1856C50.1174 16.7121 49.2009 16.9758 48.0139 16.9758C47.4253 16.9758 46.9217 16.9508 46.5 16.901V10.7336C47.0501 10.6472 47.6426 10.6031 48.2825 10.6031C49.4132 10.6031 50.2655 10.8419 50.8402 11.3195C51.4841 11.8594 51.807 12.6314 51.807 13.6365ZM50.7158 13.6643C50.7158 12.9326 50.5163 12.3716 50.1174 11.9803C49.7184 11.59 49.1357 11.3943 48.3684 11.3943C48.0425 11.3943 47.765 11.4154 47.5349 11.4595V16.1482C47.6623 16.1673 47.8954 16.176 48.2341 16.176C49.0261 16.176 49.6374 15.9621 50.068 15.5344C50.4985 15.1067 50.7158 14.4833 50.7158 13.6643Z" fill="#333333"/>
<path d="M57.5946 14.6222C57.5946 15.3175 57.3902 15.8871 56.9814 16.334C56.5528 16.7934 55.9849 17.0226 55.2759 17.0226C54.5925 17.0226 54.0484 16.803 53.6425 16.3618C53.2376 15.9217 53.0352 15.3664 53.0352 14.697C53.0352 13.9969 53.2435 13.4225 53.6622 12.9765C54.081 12.5306 54.6439 12.3071 55.3529 12.3071C56.0363 12.3071 56.5854 12.5267 57.0011 12.9669C57.3961 13.3947 57.5946 13.947 57.5946 14.6222ZM56.5212 14.6548C56.5212 14.2376 56.4283 13.8799 56.2437 13.5817C56.0264 13.2211 55.7173 13.0408 55.3154 13.0408C54.8996 13.0408 54.5836 13.2211 54.3664 13.5817C54.1807 13.8799 54.0889 14.2434 54.0889 14.673C54.0889 15.0902 54.1817 15.4479 54.3664 15.7462C54.5905 16.1067 54.9026 16.287 55.3055 16.287C55.7005 16.287 56.0106 16.1039 56.2338 15.7366C56.4254 15.4326 56.5212 15.072 56.5212 14.6548Z" fill="#333333"/>
<path d="M65.3503 12.3994L63.8937 16.9202H62.9457L62.3423 14.9571C62.1892 14.467 62.0648 13.9799 61.968 13.4965H61.9493C61.8594 13.9933 61.735 14.4795 61.575 14.9571L60.9341 16.9202H59.9752L58.6055 12.3994H59.669L60.1954 14.5486C60.3228 15.0568 60.4275 15.5411 60.5114 15.9996H60.5302C60.6072 15.6217 60.7346 15.1403 60.9143 14.5582L61.575 12.4004H62.4184L63.0514 14.5121C63.2044 15.0271 63.3289 15.5229 63.4246 16.0005H63.4533C63.5234 15.5354 63.6291 15.0396 63.7693 14.5121L64.3342 12.4004H65.3503V12.3994Z" fill="#333333"/>
<path d="M70.7172 16.9202H69.6823V14.3308C69.6823 13.5329 69.3702 13.134 68.7441 13.134C68.437 13.134 68.1891 13.2433 67.9966 13.4629C67.806 13.6825 67.7092 13.9415 67.7092 14.2378V16.9192H66.6742V13.6912C66.6742 13.2941 66.6614 12.8635 66.6367 12.3975H67.5462L67.5946 13.1043H67.6233C67.7437 12.8846 67.9235 12.7034 68.1595 12.5586C68.44 12.3898 68.754 12.3044 69.0977 12.3044C69.5322 12.3044 69.8936 12.4406 70.181 12.7139C70.5385 13.0486 70.7172 13.5483 70.7172 14.2119V16.9202Z" fill="#333333"/>
<path d="M73.5691 16.9201H72.5352V10.325H73.5691V16.9201Z" fill="#333333"/>
<path d="M79.6649 14.6222C79.6649 15.3175 79.4605 15.8871 79.0517 16.334C78.6231 16.7934 78.0543 17.0226 77.3462 17.0226C76.6618 17.0226 76.1177 16.803 75.7128 16.3618C75.3079 15.9217 75.1055 15.3664 75.1055 14.697C75.1055 13.9969 75.3138 13.4225 75.7326 12.9765C76.1513 12.5306 76.7142 12.3071 77.4222 12.3071C78.1066 12.3071 78.6547 12.5267 79.0714 12.9669C79.4664 13.3947 79.6649 13.947 79.6649 14.6222ZM78.5905 14.6548C78.5905 14.2376 78.4977 13.8799 78.313 13.5817C78.0967 13.2211 77.7866 13.0408 77.3857 13.0408C76.9689 13.0408 76.6529 13.2211 76.4367 13.5817C76.251 13.8799 76.1592 14.2434 76.1592 14.673C76.1592 15.0902 76.252 15.4479 76.4367 15.7462C76.6608 16.1067 76.9729 16.287 77.3758 16.287C77.7708 16.287 78.0799 16.1039 78.3031 15.7366C78.4957 15.4326 78.5905 15.072 78.5905 14.6548Z" fill="#333333"/>
<path d="M84.6733 16.92H83.7441L83.667 16.3992H83.6384C83.3204 16.8145 82.8671 17.0226 82.2786 17.0226C81.8391 17.0226 81.4836 16.8855 81.216 16.6131C80.973 16.3657 80.8516 16.0578 80.8516 15.6924C80.8516 15.1401 81.0886 14.719 81.5656 14.4275C82.0415 14.136 82.7111 13.9931 83.5732 13.9998V13.9154C83.5732 13.3198 83.2513 13.0226 82.6064 13.0226C82.1472 13.0226 81.7423 13.1348 81.3927 13.3572L81.1824 12.6974C81.6149 12.4376 82.1492 12.3071 82.7792 12.3071C83.9959 12.3071 84.6062 12.9305 84.6062 14.1772V15.8421C84.6062 16.2938 84.6289 16.6534 84.6733 16.92ZM83.5989 15.3664V14.6692C82.4573 14.65 81.8865 14.954 81.8865 15.5802C81.8865 15.8162 81.9517 15.9926 82.085 16.1106C82.2183 16.2285 82.3882 16.287 82.5906 16.287C82.8178 16.287 83.0301 16.217 83.2236 16.078C83.4182 15.938 83.5377 15.7605 83.5821 15.5428C83.593 15.4939 83.5989 15.4345 83.5989 15.3664Z" fill="#333333"/>
<path d="M90.5533 16.9201H89.6349L89.5865 16.1941H89.5579C89.2646 16.7465 88.7649 17.0227 88.0627 17.0227C87.5018 17.0227 87.0347 16.8088 86.6644 16.3811C86.294 15.9534 86.1094 15.3981 86.1094 14.7163C86.1094 13.9845 86.3098 13.3919 86.7128 12.9392C87.1028 12.5173 87.5808 12.3063 88.1496 12.3063C88.7747 12.3063 89.2122 12.5105 89.4611 12.92H89.4808V10.325H90.5168V15.7021C90.5168 16.1423 90.5286 16.548 90.5533 16.9201ZM89.4808 15.0136V14.2598C89.4808 14.1294 89.4709 14.0239 89.4522 13.9433C89.3939 13.7016 89.2685 13.4983 89.0779 13.3343C88.8853 13.1703 88.6533 13.0879 88.3856 13.0879C87.9995 13.0879 87.6973 13.2365 87.4751 13.5348C87.2549 13.833 87.1433 14.2138 87.1433 14.6789C87.1433 15.1258 87.249 15.4883 87.4613 15.7674C87.6855 16.0647 87.9877 16.2133 88.3659 16.2133C88.7056 16.2133 88.9772 16.0896 89.1836 15.8412C89.3831 15.612 89.4808 15.3358 89.4808 15.0136Z" fill="#333333"/>
<path d="M99.4032 14.6222C99.4032 15.3175 99.1988 15.8871 98.79 16.334C98.3614 16.7934 97.7945 17.0226 97.0845 17.0226C96.4021 17.0226 95.858 16.803 95.4511 16.3618C95.0462 15.9217 94.8438 15.3664 94.8438 14.697C94.8438 13.9969 95.0521 13.4225 95.4708 12.9765C95.8896 12.5306 96.4524 12.3071 97.1625 12.3071C97.8449 12.3071 98.3949 12.5267 98.8097 12.9669C99.2047 13.3947 99.4032 13.947 99.4032 14.6222ZM98.3307 14.6548C98.3307 14.2376 98.2379 13.8799 98.0532 13.5817C97.835 13.2211 97.5269 13.0408 97.124 13.0408C96.7092 13.0408 96.3932 13.2211 96.1749 13.5817C95.9893 13.8799 95.8975 14.2434 95.8975 14.673C95.8975 15.0902 95.9903 15.4479 96.1749 15.7462C96.3991 16.1067 96.7112 16.287 97.1141 16.287C97.5091 16.287 97.8202 16.1039 98.0434 15.7366C98.234 15.4326 98.3307 15.072 98.3307 14.6548Z" fill="#333333"/>
<path d="M104.97 16.9202H103.936V14.3308C103.936 13.5329 103.624 13.134 102.997 13.134C102.69 13.134 102.442 13.2433 102.25 13.4629C102.059 13.6825 101.963 13.9415 101.963 14.2378V16.9192H100.927V13.6912C100.927 13.2941 100.915 12.8635 100.891 12.3975H101.799L101.848 13.1043H101.876C101.998 12.8846 102.177 12.7034 102.412 12.5586C102.694 12.3898 103.007 12.3044 103.352 12.3044C103.785 12.3044 104.147 12.4406 104.434 12.7139C104.792 13.0486 104.97 13.5483 104.97 14.2119V16.9202Z" fill="#333333"/>
<path d="M111.933 13.1519H110.793V15.348C110.793 15.9062 110.996 16.1853 111.397 16.1853C111.582 16.1853 111.736 16.1699 111.858 16.1383L111.884 16.9007C111.68 16.9755 111.411 17.0129 111.081 17.0129C110.672 17.0129 110.354 16.8921 110.124 16.6504C109.893 16.4087 109.778 16.0021 109.778 15.4315V13.1519H109.098V12.3991H109.778V11.5705L110.792 11.2732V12.3981H111.932V13.1519H111.933Z" fill="#333333"/>
<path d="M117.414 16.9201H116.378V14.3499C116.378 13.5396 116.066 13.1339 115.441 13.1339C114.961 13.1339 114.633 13.3689 114.453 13.8388C114.423 13.9376 114.405 14.0584 114.405 14.2003V16.9191H113.371V10.325H114.405V13.0495H114.425C114.751 12.5537 115.218 12.3063 115.823 12.3063C116.252 12.3063 116.606 12.4425 116.888 12.7158C117.238 13.0562 117.414 13.5626 117.414 14.232V16.9201Z" fill="#333333"/>
<path d="M123.065 14.4461C123.065 14.6264 123.051 14.7779 123.026 14.9016H119.922C119.936 15.3485 120.084 15.6889 120.372 15.9249C120.634 16.1358 120.973 16.2413 121.388 16.2413C121.847 16.2413 122.266 16.1704 122.643 16.0275L122.805 16.7256C122.363 16.9117 121.844 17.0047 121.243 17.0047C120.522 17.0047 119.954 16.7985 119.543 16.3861C119.13 15.9738 118.926 15.4204 118.926 14.7261C118.926 14.0442 119.116 13.4765 119.501 13.0238C119.901 12.5405 120.444 12.2988 121.128 12.2988C121.798 12.2988 122.306 12.5405 122.65 13.0238C122.927 13.4074 123.065 13.8822 123.065 14.4461ZM122.077 14.1862C122.085 13.8879 122.017 13.6309 121.877 13.4142C121.697 13.1351 121.423 12.9951 121.053 12.9951C120.715 12.9951 120.44 13.1313 120.229 13.4046C120.057 13.6223 119.956 13.8822 119.922 14.1862H122.077Z" fill="#333333"/>
<rect x="0.5" y="0.5" width="147" height="47" rx="7.5" stroke="#D6D6D6"/>
</svg>
