<?xml version="1.0" encoding="UTF-8" standalone="no" ?>
<!DOCTYPE svg PUBLIC "-//W3C//DTD SVG 1.1//EN" "http://www.w3.org/Graphics/SVG/1.1/DTD/svg11.dtd">
<svg xmlns="http://www.w3.org/2000/svg" xmlns:xlink="http://www.w3.org/1999/xlink" version="1.1" width="219" height="219" viewBox="0 0 219 219" xml:space="preserve">
<desc>Created with Fabric.js 5.2.4</desc>
<defs>
</defs>
<rect x="0" y="0" width="100%" height="100%" fill="transparent"></rect>
<g transform="matrix(1 0 0 1 109.5 109.5)" id="3ca165b8-65ee-47ab-9e0b-77947bd5f90c"  >
<rect style="stroke: none; stroke-width: 1; stroke-dasharray: none; stroke-linecap: butt; stroke-dashoffset: 0; stroke-linejoin: miter; stroke-miterlimit: 4; fill: rgb(255,255,255); fill-rule: nonzero; opacity: 1; visibility: hidden;" vector-effect="non-scaling-stroke"  x="-109.5" y="-109.5" rx="0" ry="0" width="219" height="219" />
</g>
<g transform="matrix(Infinity NaN NaN Infinity 0 0)" id="96b68cdf-2527-41ec-922e-bbd87cc427c6"  >
</g>
<g transform="matrix(1 0 0 1 -63.96 -66.52)"  >
<rect style="stroke: none; stroke-width: 1; stroke-dasharray: none; stroke-linecap: butt; stroke-dashoffset: 0; stroke-linejoin: miter; stroke-miterlimit: 4; fill: rgb(255,255,255); fill-opacity: 0; fill-rule: nonzero; opacity: 1;" vector-effect="non-scaling-stroke"  x="-50" y="-50" rx="0" ry="0" width="100" height="100" />
</g>
<g transform="matrix(1 0 0 1 -4.46 -7.02)"  >
<rect style="stroke: none; stroke-width: 1; stroke-dasharray: none; stroke-linecap: butt; stroke-dashoffset: 0; stroke-linejoin: miter; stroke-miterlimit: 4; fill: rgb(255,255,255); fill-rule: nonzero; opacity: 1; visibility: hidden;" vector-effect="non-scaling-stroke"  x="-109.5" y="-109.5" rx="0" ry="0" width="219" height="219" />
</g>
<g transform="matrix(1.19 0 0 0.9 109.04 112.41)"  >
<rect style="stroke: rgb(224,0,52); stroke-width: 2; stroke-dasharray: none; stroke-linecap: butt; stroke-dashoffset: 0; stroke-linejoin: round; stroke-miterlimit: 4; fill: none; fill-rule: nonzero; opacity: 1;" vector-effect="non-scaling-stroke"  x="-47.42" y="-67.74" rx="20.3227" ry="20.3227" width="94.84" height="135.48" />
</g>
<g transform="matrix(3.74 0 0 3.86 115.9 87.37)"  >
<path style="stroke: none; stroke-width: 1; stroke-dasharray: none; stroke-linecap: butt; stroke-dashoffset: 0; stroke-linejoin: miter; stroke-miterlimit: 4; fill: rgb(224,0,52); fill-rule: nonzero; opacity: 1;" vector-effect="non-scaling-stroke"  transform=" translate(-12, -5.2)" d="M 7.04777 5.06345 C 5.01392 6.37333 3.6023 8.25568 2.30213 10.4 C 1.87492 9.0416 1.8935 7.83846 2.40428 6.65471 C 2.51572 6.39274 2.72004 6.22779 2.97079 6.12106 C 3.65803 5.82027 4.33597 5.50008 5.03249 5.2381 C 5.34825 5.12167 5.57114 4.92761 5.76617 4.66563 C 7.27066 2.71537 9.14663 1.26965 11.2733 0.153825 C 11.4591 0.0567963 11.6913 -0.0984487 11.8399 0.0859048 C 11.9513 0.231447 11.7656 0.444909 11.6727 0.61956 C 11.2362 1.49281 10.9947 2.43399 10.8833 3.41397 C 10.8369 3.81179 10.9483 3.97673 11.3569 3.94763 C 13.4837 3.77298 15.6197 3.83119 17.7464 3.99614 C 18.8515 4.08347 19.9567 4.1902 21.0154 4.5492 C 21.6748 4.77237 22.0091 5.17018 21.9998 5.65532 C 21.9905 6.24719 21.5726 6.74204 20.9318 6.9652 C 20.1889 7.21747 19.4273 7.17866 18.6658 7.16896 C 16.6412 7.13985 14.6074 7.12045 12.5828 7.05253 C 11.0876 7.00401 9.79672 7.51826 8.62656 8.43033 C 8.15292 8.79903 7.68858 9.16774 7.19637 9.50734 C 6.85275 9.74021 6.45341 10.0022 6.04478 9.69169 C 5.61758 9.3715 5.77545 8.90577 5.86832 8.48854 C 6.08192 7.53767 6.44412 6.63531 6.79702 5.73294 C 6.88989 5.51948 6.96419 5.28661 7.04777 5.06345 Z" stroke-linecap="round" />
</g>
<g transform="matrix(3.74 0 0 3.86 110.14 126.07)"  >
<path style="stroke: none; stroke-width: 1; stroke-dasharray: none; stroke-linecap: butt; stroke-dashoffset: 0; stroke-linejoin: miter; stroke-miterlimit: 4; fill: rgb(224,0,52); fill-rule: nonzero; opacity: 1;" vector-effect="non-scaling-stroke"  transform=" translate(-10.46, -16)" d="M 16.4177 9.65015 C 15.2634 10.232 14.1181 10.8043 12.9638 11.3862 C 12.767 11.4815 12.5791 11.6055 12.3912 11.7105 C 11.4874 12.2351 11.5232 12.2255 11.7111 13.332 C 12.2391 16.4892 13.0444 19.5702 13.6618 22.6988 C 13.6886 22.8228 13.7065 22.9468 13.7065 23.0708 C 13.7423 23.748 13.4202 24.0723 12.7849 23.9865 C 12.2301 23.9102 11.8096 23.5382 11.4338 23.128 C 9.66208 21.1631 7.89936 19.1982 6.12769 17.2237 C 5.68925 16.7372 5.68925 16.7372 5.25976 17.2428 C 4.54393 18.0726 3.99811 19.0265 3.56862 20.0566 C 3.49703 20.2188 3.47914 20.4763 3.23754 20.4763 C 3.03174 20.4763 2.92437 20.276 2.83489 20.1138 C 2.33381 19.2268 2.14591 18.2348 2.04749 17.2237 C 1.79695 14.6578 2.55751 12.3877 3.86389 10.2797 C 4.36497 9.46892 4.91974 8.69631 5.59977 8 C 5.46555 8.55323 5.33134 9.10646 5.19712 9.65969 C 5.09869 10.0412 5.07185 10.4323 5.09869 10.8234 C 5.14343 11.6532 5.75188 12.1015 6.49455 11.8535 C 7.1209 11.6437 7.60408 11.2145 8.09621 10.7852 C 8.85678 10.1175 9.58155 9.40215 10.4495 8.89662 C 10.9416 8.61046 11.4516 8.41969 12.0154 8.39108 C 14.2702 8.27662 16.5251 8.48646 18.7799 8.45785 C 18.8068 8.45785 18.8336 8.48646 18.9231 8.53415 C 18.4131 8.88708 17.8672 9.04923 17.3304 9.24954 C 17.0351 9.40215 16.7219 9.51662 16.4177 9.65015 Z" stroke-linecap="round" />
</g>
</svg>