<svg width="219" height="219" viewBox="0 0 219 219" fill="none" xmlns="http://www.w3.org/2000/svg">
<g clip-path="url(#clip0_162_3193)">
<path d="M143.23 138.975C143.23 137.395 141.949 136.113 140.369 136.113C138.788 136.113 137.507 137.395 137.507 138.975H143.23ZM83.1305 171.257V168.395C82.0757 168.395 81.1063 168.975 80.6081 169.905C80.1098 170.835 80.1633 171.963 80.7473 172.841L83.1305 171.257ZM91.4795 188.982C92.3546 190.298 94.1311 190.656 95.4472 189.781C96.7634 188.905 97.121 187.129 96.2458 185.813L91.4795 188.982ZM137.507 138.975V144.356H143.23V138.975H137.507ZM113.467 168.395H83.1305V174.119H113.467V168.395ZM80.7473 172.841L91.4795 188.982L96.2458 185.813L85.5137 169.672L80.7473 172.841ZM137.507 144.356C137.507 157.632 126.744 168.395 113.467 168.395V174.119C129.905 174.119 143.23 160.793 143.23 144.356H137.507Z" fill="#E00034"/>
<path d="M44.2466 48.4221C44.2466 50.0027 45.5279 51.284 47.1085 51.284C48.689 51.284 49.9704 50.0027 49.9704 48.4221H44.2466ZM133.192 16.1407V19.0026C134.35 19.0026 135.393 18.3053 135.836 17.2359C136.279 16.1665 136.034 14.9355 135.216 14.117L133.192 16.1407ZM119.075 -2.02367C117.958 -3.14132 116.145 -3.14132 115.028 -2.02367C113.91 -0.906029 113.91 0.906029 115.028 2.02367L119.075 -2.02367ZM49.9704 48.4221V43.0419H44.2466V48.4221H49.9704ZM74.0096 19.0026H133.192V13.2788H74.0096V19.0026ZM135.216 14.117L119.075 -2.02367L115.028 2.02367L131.169 18.1644L135.216 14.117ZM49.9704 43.0419C49.9704 29.7654 60.7331 19.0026 74.0096 19.0026V13.2788C57.5719 13.2788 44.2466 26.6042 44.2466 43.0419H49.9704Z" fill="#E00034"/>
<rect x="2.90118" y="60.6987" width="75.3232" height="107.605" rx="16.1407" stroke="#E00034" stroke-width="5.72381" stroke-linejoin="round"/>
<path d="M35.1826 152.163H45.943" stroke="#E00034" stroke-width="5.72381" stroke-linecap="round" stroke-linejoin="round"/>
<path d="M24.7529 126.56C26.5972 126.56 27.8267 125.331 27.8267 123.35V107.264C27.8267 96.5056 31.6177 90.7679 37.6286 89.5384V124.169C37.6286 125.604 38.6873 126.56 40.1218 126.56C41.283 126.56 42.4442 125.604 42.4442 124.169V89.4701C48.6942 90.5288 52.6217 96.3007 52.6217 107.264V123.35C52.6217 125.331 53.8512 126.56 55.6955 126.56C57.5398 126.56 58.7693 125.331 58.7693 123.35V106.854C58.7693 92.578 52.3827 84.7228 42.4442 83.7324V78.1313C42.4442 76.6285 41.283 75.8089 40.1218 75.8089C38.6873 75.8089 37.6286 76.6285 37.6286 78.1313V83.7665C27.895 84.9277 21.6791 92.7829 21.6791 106.854V123.35C21.6791 125.331 22.9087 126.56 24.7529 126.56Z" fill="#E00034"/>
<rect x="140.776" y="17.2734" width="75.3232" height="107.605" rx="16.1407" stroke="#E00034" stroke-width="5.72381" stroke-linejoin="round"/>
<path d="M173.057 108.738H183.817" stroke="#E00034" stroke-width="5.72381" stroke-linecap="round" stroke-linejoin="round"/>
<path d="M162.627 88.0841C164.472 88.0841 165.701 86.8546 165.701 84.8737V68.7877C165.701 58.0295 169.492 52.2918 175.503 51.0623V85.6934C175.503 87.1278 176.562 88.0841 177.996 88.0841C179.157 88.0841 180.319 87.1278 180.319 85.6934V50.994C186.569 52.0527 190.496 57.8246 190.496 68.7877V84.8737C190.496 86.8546 191.726 88.0841 193.57 88.0841C195.414 88.0841 196.644 86.8546 196.644 84.8737V68.3779C196.644 54.1019 190.257 46.2467 180.319 45.2563V39.6552C180.319 38.1525 179.157 37.3328 177.996 37.3328C176.562 37.3328 175.503 38.1525 175.503 39.6552V45.2904C165.769 46.4516 159.554 54.3068 159.554 68.3779V84.8737C159.554 86.8546 160.783 88.0841 162.627 88.0841Z" fill="#E00034"/>
</g>
<defs>
<clipPath id="clip0_162_3193">
<rect width="219" height="219" fill="white"/>
</clipPath>
</defs>
</svg>
