<svg width="36" height="36" viewBox="0 0 36 36" fill="none" xmlns="http://www.w3.org/2000/svg">
<path d="M25.5 31.56H10.5C5.745 31.56 1.875 27.69 1.875 22.935V8.56499C1.875 6.61499 2.775 5.93999 3.315 5.71499C3.855 5.48999 4.965 5.32499 6.345 6.70499L10.23 10.59C10.38 10.74 10.62 10.74 10.755 10.59L16.14 5.20499C17.13 4.21499 18.87 4.21499 19.845 5.20499L25.23 10.59C25.38 10.74 25.62 10.74 25.755 10.59L29.64 6.70499C31.02 5.32499 32.13 5.50499 32.67 5.71499C33.21 5.93999 34.11 6.59999 34.11 8.56499V22.95C34.125 28.095 30.66 31.56 25.5 31.56ZM4.215 7.85999C4.17 7.97999 4.125 8.20499 4.125 8.56499V22.95C4.125 26.46 6.99 29.325 10.5 29.325H25.5C29.37 29.325 31.875 26.82 31.875 22.95V8.56499C31.875 8.20499 31.83 7.99499 31.785 7.87499C31.665 7.93499 31.485 8.05499 31.23 8.30999L27.345 12.195C26.355 13.185 24.615 13.185 23.64 12.195L18.255 6.80999C18.105 6.65999 17.865 6.65999 17.73 6.80999L12.36 12.18C11.37 13.17 9.63 13.17 8.655 12.18L4.77 8.29499C4.515 8.03999 4.32 7.91999 4.215 7.85999Z" fill="white"/>
</svg>
