<svg width="20" height="20" viewBox="0 0 20 20" fill="none" xmlns="http://www.w3.org/2000/svg">
<path d="M15.9758 5.53335C15.6174 3.72502 14.2758 2.93335 12.4091 2.93335H5.09245C2.89245 2.93335 1.42578 4.03335 1.42578 6.60002V10.8917C1.42578 12.7417 2.18411 13.825 3.43411 14.2917C3.61745 14.3583 3.81745 14.4167 4.02578 14.45C4.35911 14.525 4.71745 14.5583 5.09245 14.5583H12.4174C14.6174 14.5583 16.0841 13.4583 16.0841 10.8917V6.60002C16.0841 6.20835 16.0508 5.85835 15.9758 5.53335ZM4.60911 10C4.60911 10.3417 4.32578 10.625 3.98411 10.625C3.64245 10.625 3.35911 10.3417 3.35911 10V7.50002C3.35911 7.15835 3.64245 6.87502 3.98411 6.87502C4.32578 6.87502 4.60911 7.15835 4.60911 7.50002V10ZM8.75078 10.95C7.53411 10.95 6.55078 9.96668 6.55078 8.75002C6.55078 7.53335 7.53411 6.55002 8.75078 6.55002C9.96745 6.55002 10.9508 7.53335 10.9508 8.75002C10.9508 9.96668 9.96745 10.95 8.75078 10.95ZM14.1341 10C14.1341 10.3417 13.8508 10.625 13.5091 10.625C13.1674 10.625 12.8841 10.3417 12.8841 10V7.50002C12.8841 7.15835 13.1674 6.87502 13.5091 6.87502C13.8508 6.87502 14.1341 7.15835 14.1341 7.50002V10Z" fill="#333333"/>
<path d="M18.5822 9.10007V13.3917C18.5822 15.9584 17.1155 17.0667 14.9072 17.0667H7.5905C6.9655 17.0667 6.40716 16.9751 5.92383 16.7917C5.53216 16.6501 5.1905 16.4417 4.9155 16.1751C4.7655 16.0334 4.88216 15.8084 5.0905 15.8084H12.4072C15.4905 15.8084 17.3238 13.9751 17.3238 10.9001V6.60007C17.3238 6.40007 17.5488 6.27507 17.6905 6.42507C18.2572 7.02507 18.5822 7.90007 18.5822 9.10007Z" fill="#333333"/>
</svg>
