<svg width="20" height="20" viewBox="0 0 20 20" fill="none" xmlns="http://www.w3.org/2000/svg">
<path d="M14.168 2.0249H5.83464C3.33464 2.0249 1.66797 3.69157 1.66797 6.19157V11.1916C1.66797 13.6916 3.33464 15.3582 5.83464 15.3582V17.1332C5.83464 17.7999 6.5763 18.1999 7.1263 17.8249L10.8346 15.3582H14.168C16.668 15.3582 18.3346 13.6916 18.3346 11.1916V6.19157C18.3346 3.69157 16.668 2.0249 14.168 2.0249ZM10.0013 12.1666C9.6513 12.1666 9.3763 11.8832 9.3763 11.5416C9.3763 11.1999 9.6513 10.9166 10.0013 10.9166C10.3513 10.9166 10.6263 11.1999 10.6263 11.5416C10.6263 11.8832 10.3513 12.1666 10.0013 12.1666ZM11.0513 8.70824C10.7263 8.9249 10.6263 9.06657 10.6263 9.2999V9.4749C10.6263 9.81657 10.343 10.0999 10.0013 10.0999C9.65964 10.0999 9.3763 9.81657 9.3763 9.4749V9.2999C9.3763 8.33324 10.0846 7.85824 10.3513 7.6749C10.6596 7.46657 10.7596 7.3249 10.7596 7.10824C10.7596 6.69157 10.418 6.3499 10.0013 6.3499C9.58464 6.3499 9.24297 6.69157 9.24297 7.10824C9.24297 7.4499 8.95964 7.73324 8.61797 7.73324C8.2763 7.73324 7.99297 7.4499 7.99297 7.10824C7.99297 5.9999 8.89297 5.0999 10.0013 5.0999C11.1096 5.0999 12.0096 5.9999 12.0096 7.10824C12.0096 8.05824 11.3096 8.53324 11.0513 8.70824Z" fill="#333333"/>
</svg>
