<?xml version="1.0" encoding="UTF-8" standalone="no" ?>
<!DOCTYPE svg PUBLIC "-//W3C//DTD SVG 1.1//EN" "http://www.w3.org/Graphics/SVG/1.1/DTD/svg11.dtd">
<svg xmlns="http://www.w3.org/2000/svg" xmlns:xlink="http://www.w3.org/1999/xlink" version="1.1" width="219" height="219" viewBox="0 0 219 219" xml:space="preserve">
<desc>Created with Fabric.js 5.2.4</desc>
<defs>
</defs>
<rect x="0" y="0" width="100%" height="100%" fill="transparent"></rect>
<g transform="matrix(0 0 0 0 0 0)" id="96b68cdf-2527-41ec-922e-bbd87cc427c6"  >
</g>
<g transform="matrix(1 0 0 1 109.5 109.5)" id="3ca165b8-65ee-47ab-9e0b-77947bd5f90c"  >
<rect style="stroke: none; stroke-width: 1; stroke-dasharray: none; stroke-linecap: butt; stroke-dashoffset: 0; stroke-linejoin: miter; stroke-miterlimit: 4; fill: rgb(255,255,255); fill-rule: nonzero; opacity: 1; visibility: hidden;" vector-effect="non-scaling-stroke"  x="-109.5" y="-109.5" rx="0" ry="0" width="219" height="219" />
</g>
<g transform="matrix(1 0 0 1 -63.96 -66.52)"  >
<rect style="stroke: none; stroke-width: 1; stroke-dasharray: none; stroke-linecap: butt; stroke-dashoffset: 0; stroke-linejoin: miter; stroke-miterlimit: 4; fill: rgb(255,255,255); fill-opacity: 0; fill-rule: nonzero; opacity: 1;" vector-effect="non-scaling-stroke"  x="-50" y="-50" rx="0" ry="0" width="100" height="100" />
</g>
<g transform="matrix(1 0 0 1 -4.46 -7.02)"  >
<rect style="stroke: none; stroke-width: 1; stroke-dasharray: none; stroke-linecap: butt; stroke-dashoffset: 0; stroke-linejoin: miter; stroke-miterlimit: 4; fill: rgb(255,255,255); fill-rule: nonzero; opacity: 1; visibility: hidden;" vector-effect="non-scaling-stroke"  x="-109.5" y="-109.5" rx="0" ry="0" width="219" height="219" />
</g>
<g transform="matrix(1 0 0 1 109.5 109.5)"  >
<rect style="stroke: none; stroke-width: 1; stroke-dasharray: none; stroke-linecap: butt; stroke-dashoffset: 0; stroke-linejoin: miter; stroke-miterlimit: 4; fill: rgb(255,255,255); fill-rule: nonzero; opacity: 1; visibility: hidden;" vector-effect="non-scaling-stroke"  x="-109.5" y="-109.5" rx="0" ry="0" width="219" height="219" />
</g>
<g transform="matrix(1.27 0 0 1.08 109.5 109.5)"  >
<path style="stroke: rgb(224,0,52); stroke-width: 2; stroke-dasharray: none; stroke-linecap: butt; stroke-dashoffset: 0; stroke-linejoin: round; stroke-miterlimit: 4; fill: none; fill-rule: nonzero; opacity: 1;" vector-effect="non-scaling-stroke"  transform=" translate(-110, -110)" d="M 65.3337 143.5 L 65.3336 76.5002 C 65.3336 64.1658 75.3326 54.1668 87.667 54.1668 L 117.5 54.1668 C 123.423 54.1668 129.103 56.5198 133.292 60.7081 L 148.126 75.5422 C 152.314 79.7305 154.667 85.4111 154.667 91.3343 L 154.667 143.5 C 154.667 155.835 144.668 165.833 132.334 165.833 L 87.667 165.834 C 75.3326 165.834 65.3337 155.835 65.3337 143.5 Z" stroke-linecap="round" />
</g>
<g transform="matrix(1.23 0 0 1.23 118.03 140.5)"  >
<path style="stroke: rgb(224,0,52); stroke-width: 2; stroke-dasharray: none; stroke-linecap: round; stroke-dashoffset: 0; stroke-linejoin: miter; stroke-miterlimit: 4; fill: none; fill-rule: nonzero; opacity: 1;" vector-effect="non-scaling-stroke"  transform=" translate(-121.17, -143.5)" d="M 132.333 143.5 L 110 143.5" stroke-linecap="round" />
</g>
<g transform="matrix(1.23 0 0 1.23 118.03 113.04)"  >
<path style="stroke: rgb(224,0,52); stroke-width: 2; stroke-dasharray: none; stroke-linecap: round; stroke-dashoffset: 0; stroke-linejoin: miter; stroke-miterlimit: 4; fill: none; fill-rule: nonzero; opacity: 1;" vector-effect="non-scaling-stroke"  transform=" translate(-121.17, -121.17)" d="M 132.333 121.167 L 110 121.167" stroke-linecap="round" />
</g>
<g transform="matrix(1.23 0 0 1.23 107.26 78.47)"  >
<path style="stroke: none; stroke-width: 1; stroke-dasharray: none; stroke-linecap: butt; stroke-dashoffset: 0; stroke-linejoin: miter; stroke-miterlimit: 4; fill: rgb(224,0,52); fill-rule: nonzero; opacity: 1;" vector-effect="non-scaling-stroke"  transform=" translate(-109.8, -90.46)" d="M 88.1379 98.7795 C 86.5967 98.7795 85.248 98.4944 84.0921 97.9241 C 82.9515 97.3539 82.0653 96.5755 81.4334 95.5891 C 80.8015 94.5873 80.4855 93.4621 80.4855 92.2137 C 80.4855 90.9344 80.7938 89.8016 81.4103 88.8152 C 82.0422 87.8288 82.8976 87.0581 83.9765 86.5033 C 85.0708 85.9484 86.2961 85.671 87.6524 85.671 C 88.9009 85.671 90.0491 85.9176 91.0972 86.4108 C 92.1607 86.904 93.0084 87.6361 93.6403 88.6071 C 94.2876 89.5781 94.6113 90.7803 94.6113 92.2137 C 94.6113 92.3987 94.6036 92.6067 94.5882 92.8379 C 94.5727 93.0537 94.5573 93.2541 94.5419 93.439 L 84.8088 93.439 L 84.8088 90.919 L 91.7676 90.919 L 89.8025 91.5895 C 89.8025 91.0963 89.71 90.6801 89.5251 90.3411 C 89.3555 89.9866 89.1166 89.7168 88.8084 89.5319 C 88.5001 89.3315 88.1302 89.2313 87.6987 89.2313 C 87.2671 89.2313 86.8895 89.3315 86.5658 89.5319 C 86.2576 89.7168 86.0187 89.9866 85.8491 90.3411 C 85.6796 90.6801 85.5948 91.0963 85.5948 91.5895 L 85.5948 92.3755 C 85.5948 92.915 85.7027 93.3774 85.9185 93.7627 C 86.1343 94.148 86.4425 94.4408 86.8433 94.6412 C 87.244 94.8262 87.7295 94.9186 88.2998 94.9186 C 88.8854 94.9186 89.3632 94.8416 89.7331 94.6874 C 90.1185 94.5333 90.5192 94.3021 90.9353 93.9939 L 93.6634 96.745 C 93.0469 97.4078 92.284 97.9164 91.3746 98.2709 C 90.4807 98.61 89.4018 98.7795 88.1379 98.7795 Z M 102.456 98.9182 C 101.1 98.9182 99.7897 98.7641 98.5258 98.4559 C 97.262 98.1476 96.2216 97.7469 95.4047 97.2537 L 97.1618 93.2772 C 97.9324 93.7242 98.7878 94.0864 99.728 94.3638 C 100.684 94.6258 101.608 94.7568 102.502 94.7568 C 103.026 94.7568 103.435 94.726 103.728 94.6643 C 104.036 94.5873 104.259 94.4871 104.398 94.3638 C 104.537 94.2251 104.606 94.0632 104.606 93.8783 C 104.606 93.5854 104.444 93.3542 104.121 93.1847 C 103.797 93.0152 103.365 92.8765 102.826 92.7686 C 102.302 92.6453 101.724 92.522 101.092 92.3987 C 100.46 92.2599 99.8205 92.0827 99.1732 91.8669 C 98.5412 91.6511 97.9555 91.366 97.4161 91.0115 C 96.8921 90.657 96.4682 90.1946 96.1445 89.6244 C 95.8209 89.0387 95.659 88.3143 95.659 87.4512 C 95.659 86.4493 95.9365 85.54 96.4913 84.7231 C 97.0616 83.8908 97.9016 83.2281 99.0113 82.7349 C 100.136 82.2417 101.531 81.9951 103.196 81.9951 C 104.29 81.9951 105.369 82.1106 106.433 82.3418 C 107.496 82.573 108.452 82.9275 109.299 83.4053 L 107.658 87.3587 C 106.856 86.958 106.078 86.6574 105.323 86.457 C 104.583 86.2567 103.859 86.1565 103.15 86.1565 C 102.626 86.1565 102.209 86.2027 101.901 86.2952 C 101.593 86.3877 101.369 86.511 101.231 86.6651 C 101.107 86.8192 101.046 86.9888 101.046 87.1737 C 101.046 87.4512 101.208 87.6746 101.531 87.8442 C 101.855 87.9983 102.279 88.1293 102.803 88.2372 C 103.342 88.3451 103.928 88.4607 104.56 88.584 C 105.207 88.7073 105.847 88.8768 106.479 89.0926 C 107.111 89.3084 107.689 89.5935 108.213 89.948 C 108.752 90.3025 109.184 90.7649 109.507 91.3352 C 109.831 91.9054 109.993 92.6144 109.993 93.4621 C 109.993 94.4486 109.708 95.3579 109.137 96.1902 C 108.583 97.0071 107.75 97.6698 106.641 98.1784 C 105.531 98.6716 104.136 98.9182 102.456 98.9182 Z M 111.616 98.5483 L 111.616 82.365 L 117.073 82.365 L 117.073 98.5483 L 111.616 98.5483 Z M 119.699 98.5483 L 119.699 82.365 L 124.184 82.365 L 130.658 92.9304 L 128.299 92.9304 L 134.588 82.365 L 139.073 82.365 L 139.119 98.5483 L 134.149 98.5483 L 134.102 89.8556 L 134.888 89.8556 L 130.588 97.0918 L 128.184 97.0918 L 123.699 89.8556 L 124.67 89.8556 L 124.67 98.5483 L 119.699 98.5483 Z" stroke-linecap="round" />
</g>
</svg>