<svg width="36" height="36" viewBox="0 0 36 36" fill="none" xmlns="http://www.w3.org/2000/svg">
<path d="M14.9868 34.125C14.6868 34.125 14.4468 34.065 14.2668 33.99C13.6668 33.765 12.6468 33.03 12.6468 30.705V21.03H9.13683C7.12683 21.03 6.40683 20.085 6.15183 19.53C5.89683 18.96 5.67183 17.805 6.99183 16.29L18.3468 3.38999C19.8768 1.64999 21.1218 1.76999 21.7218 1.99499C22.3218 2.21999 23.3418 2.95499 23.3418 5.27999V14.955H26.8518C28.8618 14.955 29.5818 15.9 29.8368 16.455C30.0918 17.025 30.3168 18.18 28.9968 19.695L17.6418 32.595C16.5768 33.81 15.6468 34.125 14.9868 34.125ZM20.8968 4.10999C20.8518 4.16999 20.5368 4.31999 20.0418 4.88999L8.68683 17.79C8.26683 18.27 8.20683 18.57 8.20683 18.63C8.23683 18.645 8.50683 18.795 9.13683 18.795H13.7718C14.3868 18.795 14.8968 19.305 14.8968 19.92V30.72C14.8968 31.47 15.0318 31.8 15.0918 31.89C15.1368 31.83 15.4518 31.68 15.9468 31.11L27.3018 18.21C27.7218 17.73 27.7818 17.43 27.7818 17.37C27.7518 17.355 27.4818 17.205 26.8518 17.205H22.2168C21.6018 17.205 21.0918 16.695 21.0918 16.08V5.27999C21.1068 4.52999 20.9568 4.21499 20.8968 4.10999Z" fill="white"/>
</svg>
