<svg width="60" height="60" viewBox="0 0 60 60" fill="none" xmlns="http://www.w3.org/2000/svg">
<rect width="60" height="60" rx="16" fill="white"/>
<path d="M31.2938 23.0357C23.7395 23.3214 20.9358 30.4361 18.4528 29.0564C16.8995 28.1964 17.8097 24.5795 18.9719 21.6363C16.9074 23.9944 15.1101 26.5611 13.6117 29.2921C11.7983 32.8236 11.3323 36.8637 12.2962 40.6966C12.8558 43.0359 14.094 44.6769 14.4966 43.7147C15.411 41.3803 16.8585 39.2767 18.7303 37.562C18.7303 37.562 25.7205 44.7074 29.0796 48.1754C31.7574 50.94 33.7092 50.165 33.6329 48.4713C33.5549 46.7574 31.3287 39.9838 29.5105 29.7856C32.8276 27.9141 36.5174 26.1404 44.5329 22.9148C43.1296 23.2091 36.1555 22.8561 31.2895 23.0381" fill="#E00034"/>
<path d="M45.5217 17.4956C42.0516 16.7236 35.8901 16.2947 28.3057 16.7407C28.2771 14.5668 28.8663 12.4276 30.0086 10.56C30.0909 10.4521 30.1433 10.3254 30.1608 10.1921C30.1608 10.0145 29.8541 9.90916 29.4051 10.1064C25.1487 12.0731 21.4263 14.988 18.5401 18.6157C16.8553 19.2075 13.6291 20.5935 13.6291 20.5935C12.4847 21.3234 11.713 24.8451 12.8459 27.697C16.8388 20.9554 21.5713 18.1996 21.5713 18.1996C19.7314 22.5319 18.5421 25.5434 19.3766 26.3582C21.1635 28.0986 22.8605 23.6247 27.8578 22.5543C30.7865 21.9256 39.9178 22.4539 43.5806 22.279C46.6801 22.1331 48.0524 21.1708 48.1642 19.7058C48.2822 18.216 46.3209 17.6807 45.5234 17.4998" fill="#E00034"/>
</svg>
