<svg width="24" height="24" viewBox="0 0 24 24" fill="none" xmlns="http://www.w3.org/2000/svg">
<path fill-rule="evenodd" clip-rule="evenodd" d="M1.78125 0.0480957C0.796875 0.0480957 0 0.823108 0 1.75686V22.2433C0 23.1864 0.796875 23.9521 1.78125 23.9521H22.2188C23.2031 23.9521 24 23.1771 24 22.2433V1.75686C24 0.813771 23.2031 0.0480957 22.2188 0.0480957H1.78125ZM7.29375 9.29209V20.0489H3.70313V9.29209H7.29375ZM7.52813 5.9586C7.52813 6.99506 6.75 7.81676 5.50313 7.81676V7.8261H5.48438C4.275 7.8261 3.49688 6.99506 3.49688 5.96794C3.49688 4.90346 4.30313 4.10044 5.53125 4.10044C6.75 4.10044 7.50938 4.90346 7.52813 5.9586ZM12.8719 20.0489H9.28125C9.28125 20.0489 9.32813 10.3005 9.28125 9.29209H12.8813V10.8279C13.2034 10.2692 13.6715 9.80768 14.2362 9.49254C14.8119 9.17123 15.4656 9.01461 16.125 9.03998C18.4781 9.03998 20.25 10.59 20.25 13.8955V20.0582H16.65V14.297C16.65 12.859 16.1344 11.8692 14.8313 11.8692C13.8375 11.8692 13.2469 12.5415 12.9938 13.1765C12.9 13.4006 12.8719 13.7274 12.8719 14.0542V20.0489Z" fill="white"/>
</svg>
