<svg width="20" height="20" viewBox="0 0 20 20" fill="none" xmlns="http://www.w3.org/2000/svg">
<path d="M14.168 17.7083H5.83464C2.79297 17.7083 1.04297 15.9583 1.04297 12.9166L1.04297 7.08329C1.04297 4.04163 2.79297 2.29163 5.83464 2.29163L14.168 2.29163C17.2096 2.29163 18.9596 4.04163 18.9596 7.08329V12.9166C18.9596 15.9583 17.2096 17.7083 14.168 17.7083ZM5.83464 3.54163C3.4513 3.54163 2.29297 4.69996 2.29297 7.08329L2.29297 12.9166C2.29297 15.3 3.4513 16.4583 5.83464 16.4583H14.168C16.5513 16.4583 17.7096 15.3 17.7096 12.9166V7.08329C17.7096 4.69996 16.5513 3.54163 14.168 3.54163L5.83464 3.54163Z" fill="#D6D6D6"/>
<path d="M10.001 10.725C9.30095 10.725 8.59262 10.5083 8.05096 10.0666L5.44262 7.98331C5.17595 7.76664 5.12596 7.37497 5.34262 7.10831C5.55929 6.84164 5.95096 6.79164 6.21763 7.00831L8.82595 9.09164C9.45928 9.59998 10.5343 9.59998 11.1676 9.09164L13.776 7.00831C14.0426 6.79164 14.4426 6.83331 14.651 7.10831C14.8676 7.37497 14.826 7.77498 14.551 7.98331L11.9426 10.0666C11.4093 10.5083 10.701 10.725 10.001 10.725Z" fill="#D6D6D6"/>
</svg>
