<svg width="20" height="20" viewBox="0 0 20 20" fill="none" xmlns="http://www.w3.org/2000/svg">
<path d="M14.543 18.9583C13.6013 18.9583 12.6096 18.7333 11.5846 18.3C10.5846 17.875 9.5763 17.2916 8.59297 16.5833C7.61797 15.8666 6.6763 15.0666 5.78464 14.1916C4.9013 13.3 4.1013 12.3583 3.39297 11.3916C2.6763 10.3916 2.1013 9.39163 1.69297 8.42496C1.25964 7.39163 1.04297 6.39163 1.04297 5.44996C1.04297 4.79996 1.15964 4.18329 1.38464 3.60829C1.61797 3.01663 1.99297 2.46663 2.5013 1.99163C3.14297 1.35829 3.8763 1.04163 4.65964 1.04163C4.98464 1.04163 5.31797 1.11663 5.6013 1.24996C5.9263 1.39996 6.2013 1.62496 6.4013 1.92496L8.33464 4.64996C8.50964 4.89163 8.64297 5.12496 8.73464 5.35829C8.84297 5.60829 8.9013 5.85829 8.9013 6.09996C8.9013 6.41663 8.80964 6.72496 8.63464 7.01663C8.50964 7.24163 8.31797 7.48329 8.0763 7.72496L7.50964 8.31663C7.51797 8.34163 7.5263 8.35829 7.53464 8.37496C7.63464 8.54996 7.83464 8.84996 8.21797 9.29996C8.6263 9.76663 9.00964 10.1916 9.39297 10.5833C9.88464 11.0666 10.293 11.45 10.6763 11.7666C11.1513 12.1666 11.4596 12.3666 11.643 12.4583L11.6263 12.5L12.2346 11.9C12.493 11.6416 12.743 11.45 12.9846 11.325C13.443 11.0416 14.0263 10.9916 14.6096 11.2333C14.8263 11.325 15.0596 11.45 15.3096 11.625L18.0763 13.5916C18.3846 13.8 18.6096 14.0666 18.743 14.3833C18.868 14.7 18.9263 14.9916 18.9263 15.2833C18.9263 15.6833 18.8346 16.0833 18.6596 16.4583C18.4846 16.8333 18.268 17.1583 17.993 17.4583C17.518 17.9833 17.0013 18.3583 16.4013 18.6C15.8263 18.8333 15.2013 18.9583 14.543 18.9583ZM4.65964 2.29163C4.2013 2.29163 3.7763 2.49163 3.36797 2.89163C2.98464 3.24996 2.71797 3.64163 2.5513 4.06663C2.3763 4.49996 2.29297 4.95829 2.29297 5.44996C2.29297 6.22496 2.4763 7.06663 2.84297 7.93329C3.21797 8.81663 3.74297 9.73329 4.40964 10.65C5.0763 11.5666 5.83464 12.4583 6.66797 13.3C7.5013 14.125 8.4013 14.8916 9.3263 15.5666C10.2263 16.225 11.1513 16.7583 12.068 17.1416C13.493 17.75 14.8263 17.8916 15.9263 17.4333C16.3513 17.2583 16.7263 16.9916 17.068 16.6083C17.2596 16.4 17.4096 16.175 17.5346 15.9083C17.6346 15.7 17.6846 15.4833 17.6846 15.2666C17.6846 15.1333 17.6596 15 17.593 14.85C17.568 14.8 17.518 14.7083 17.3596 14.6L14.593 12.6333C14.4263 12.5166 14.2763 12.4333 14.1346 12.375C13.9513 12.3 13.8763 12.225 13.593 12.4C13.4263 12.4833 13.2763 12.6083 13.1096 12.775L12.4763 13.4C12.1513 13.7166 11.6513 13.7916 11.268 13.65L11.043 13.55C10.7013 13.3666 10.3013 13.0833 9.85964 12.7083C9.45964 12.3666 9.0263 11.9666 8.5013 11.45C8.09297 11.0333 7.68464 10.5916 7.25964 10.1C6.86797 9.64163 6.58464 9.24996 6.40964 8.92496L6.30964 8.67496C6.25964 8.48329 6.24297 8.37496 6.24297 8.25829C6.24297 7.95829 6.3513 7.69163 6.55964 7.48329L7.18464 6.83329C7.3513 6.66663 7.4763 6.50829 7.55964 6.36663C7.6263 6.25829 7.6513 6.16663 7.6513 6.08329C7.6513 6.01663 7.6263 5.91663 7.58464 5.81663C7.5263 5.68329 7.43464 5.53329 7.31797 5.37496L5.38464 2.64163C5.3013 2.52496 5.2013 2.44163 5.0763 2.38329C4.94297 2.32496 4.8013 2.29163 4.65964 2.29163ZM11.6263 12.5083L11.493 13.075L11.718 12.4916C11.6763 12.4833 11.643 12.4916 11.6263 12.5083Z" fill="#D6D6D6"/>
<path d="M15.4167 8.12504C15.075 8.12504 14.7917 7.84171 14.7917 7.50004C14.7917 7.20004 14.4917 6.57504 13.9917 6.04171C13.5 5.51671 12.9583 5.20837 12.5 5.20837C12.1583 5.20837 11.875 4.92504 11.875 4.58337C11.875 4.24171 12.1583 3.95837 12.5 3.95837C13.3083 3.95837 14.1583 4.39171 14.9 5.18337C15.5917 5.92504 16.0417 6.83337 16.0417 7.50004C16.0417 7.84171 15.7583 8.12504 15.4167 8.12504Z" fill="#D6D6D6"/>
<path d="M18.3333 8.12496C17.9917 8.12496 17.7083 7.84163 17.7083 7.49996C17.7083 4.62496 15.375 2.29163 12.5 2.29163C12.1583 2.29163 11.875 2.00829 11.875 1.66663C11.875 1.32496 12.1583 1.04163 12.5 1.04163C16.0583 1.04163 18.9583 3.94163 18.9583 7.49996C18.9583 7.84163 18.675 8.12496 18.3333 8.12496Z" fill="#D6D6D6"/>
</svg>
