<svg width="24" height="24" viewBox="0 0 24 24" fill="none" xmlns="http://www.w3.org/2000/svg">
<path d="M19.5492 11.005C19.0922 9.97839 18.4383 9.06902 17.6063 8.30495L16.9242 7.67917C16.8234 7.59011 16.6641 7.62995 16.6195 7.75652L16.3148 8.63073C16.125 9.17917 15.7758 9.73933 15.2812 10.2901C15.2484 10.3253 15.2109 10.3346 15.1852 10.337C15.1594 10.3393 15.1195 10.3346 15.0844 10.3018C15.0516 10.2737 15.0352 10.2315 15.0375 10.1893C15.1242 8.77839 14.7023 7.18698 13.7789 5.45495C13.0148 4.01589 11.9531 2.89323 10.6266 2.11042L9.65859 1.54089C9.53203 1.46589 9.37031 1.56433 9.37734 1.71198L9.42891 2.83698C9.46406 3.60573 9.375 4.28542 9.16406 4.85027C8.90625 5.54167 8.53594 6.18386 8.0625 6.76042C7.72969 7.16355 7.35703 7.52683 6.94922 7.84089C5.9625 8.59792 5.14922 9.58464 4.59844 10.6885C4.04297 11.8042 3.75 13.0534 3.75 14.305C3.75 15.4112 3.96797 16.4823 4.39922 17.4925C4.81641 18.4651 5.41172 19.3417 6.16875 20.0917C6.92813 20.8417 7.80938 21.4323 8.79141 21.8425C9.80859 22.269 10.8867 22.4846 12 22.4846C13.1133 22.4846 14.1914 22.269 15.2086 21.8448C16.1906 21.4346 17.0742 20.8464 17.8312 20.094C18.5906 19.344 19.1859 18.4675 19.6008 17.4948C20.032 16.4846 20.25 15.4135 20.25 14.3073C20.25 13.1635 20.0156 12.0526 19.5492 11.005Z" fill="#E00034"/>
</svg>
