<svg width="24" height="24" viewBox="0 0 24 24" fill="none" xmlns="http://www.w3.org/2000/svg">
<path d="M14 20.5H10C9.59 20.5 9.25 20.16 9.25 19.75C9.25 19.34 9.59 19 10 19H14C14.41 19 14.75 19.34 14.75 19.75C14.75 20.16 14.41 20.5 14 20.5Z" fill="#858585"/>
<path fill-rule="evenodd" clip-rule="evenodd" d="M14.6822 1L8.91429 1C4.37829 1 3 2.37116 3 6.88372L3 17.1163C3 21.6288 4.37829 23 8.91429 23H15.0857C19.6217 23 21 21.6288 21 17.1163L21 11.1973C20.5233 11.4731 20.0051 11.6851 19.4571 11.8218L19.4571 17.1163C19.4571 20.7693 18.768 21.4651 15.0857 21.4651H8.91429C5.232 21.4651 4.54286 20.7693 4.54286 17.1163L4.54286 6.88372C4.54286 3.2307 5.232 2.53488 8.91429 2.53488L13.1011 2.53488C13.5289 1.93122 14.0654 1.41007 14.6822 1ZM12.1687 7.41886C12.1113 7.46065 12.0552 7.50413 12.0004 7.54923C11.3967 7.051 10.6247 6.75 9.78 6.75C7.81943 6.75 6.25 8.36128 6.25 10.3264C6.25 12.3426 7.17665 13.9267 8.2616 15.0508C9.33594 16.164 10.6085 16.8739 11.4422 17.1624C11.6321 17.2294 11.8345 17.25 12 17.25C12.1655 17.25 12.3679 17.2294 12.5578 17.1624C13.3914 16.8739 14.664 16.164 15.7384 15.0508C16.5064 14.2551 17.1951 13.2289 17.5319 11.982C17.0202 11.9425 16.5264 11.8388 16.0587 11.679C15.7926 12.5949 15.2738 13.3723 14.6591 14.0091C13.7533 14.9476 12.6842 15.5314 12.0674 15.7448L12.0587 15.7462C12.0441 15.7483 12.0236 15.75 12 15.75C11.9764 15.75 11.9559 15.7483 11.9413 15.7462L11.9326 15.7448C11.3158 15.5314 10.2467 14.9476 9.3409 14.0091C8.44335 13.0792 7.75 11.8495 7.75 10.3264C7.75 9.16681 8.67057 8.25 9.78 8.25C10.438 8.25 11.0237 8.57031 11.3955 9.07652C11.5368 9.26894 11.7613 9.38258 12 9.38258C12.2387 9.38258 12.4632 9.26894 12.6045 9.07652C12.6491 9.01579 12.6969 8.95772 12.7475 8.90255C12.4923 8.44173 12.296 7.94379 12.1687 7.41886Z" fill="#858585"/>
<path fill-rule="evenodd" clip-rule="evenodd" d="M18 10.5C20.4853 10.5 22.5 8.48528 22.5 6C22.5 3.51472 20.4853 1.5 18 1.5C15.5147 1.5 13.5 3.51472 13.5 6C13.5 8.48528 15.5147 10.5 18 10.5ZM18 12C21.3137 12 24 9.31371 24 6C24 2.68629 21.3137 0 18 0C14.6863 0 12 2.68629 12 6C12 9.31371 14.6863 12 18 12Z" fill="#858585"/>
<path d="M17.1849 4.68771C17.1849 5.09525 17.462 5.29086 17.9348 5.46203C18.3586 5.29086 18.7825 5.03819 18.7825 4.68771C18.7825 4.28018 18.4646 4.03566 17.9837 4.03566C17.4784 4.03566 17.1849 4.31278 17.1849 4.68771ZM18.8803 7.20627C18.8966 6.63573 18.5135 6.42381 17.9511 6.23634C17.4947 6.42381 17.1116 6.66018 17.1116 7.18182C17.1116 7.70347 17.3642 7.95614 17.9837 7.95614C18.4972 7.95614 18.864 7.72792 18.8803 7.20627ZM16.1009 4.72032C16.1009 3.65258 16.8344 3.18799 18.0244 3.18799C19.0759 3.18799 19.8665 3.65258 19.8665 4.64696C19.8665 5.1523 19.516 5.59244 19.0025 5.86141C19.5568 6.08148 20.0784 6.57052 20.0784 7.18997C20.0784 8.21696 19.2389 8.81196 17.9429 8.81196C16.6307 8.81196 15.9216 8.25771 15.9216 7.30408C15.9216 6.61128 16.3536 6.16299 16.9404 5.88586C16.3943 5.63319 16.1009 5.12785 16.1009 4.72032Z" fill="#858585"/>
</svg>
