<svg width="219" height="219" viewBox="0 0 219 219" fill="none" xmlns="http://www.w3.org/2000/svg">
<path d="M105.623 133.6H118.367" stroke="#E00034" stroke-width="5.64385" stroke-linecap="round" stroke-linejoin="round"/>
<path d="M170.336 56.7402L177.959 64.3634M177.959 64.3634L170.336 71.9867M177.959 64.3634L147.466 64.3634" stroke="#E00034" stroke-width="5.64385" stroke-linecap="round" stroke-linejoin="round"/>
<path d="M53.4987 116.34L46.0232 108.572M46.0232 108.572L53.7913 101.096M46.0232 108.572L76.5104 109.157" stroke="#E00034" stroke-width="5.64385" stroke-linecap="round" stroke-linejoin="round"/>
<path fill-rule="evenodd" clip-rule="evenodd" d="M64.5685 44.8147C64.5685 32.6986 74.3906 22.8765 86.5068 22.8765H137.484C149.6 22.8765 159.422 32.6986 159.422 44.8147V55.7986H153.778V44.8147C153.778 35.8156 146.483 28.5203 137.484 28.5203H86.5068C77.5076 28.5203 70.2123 35.8156 70.2123 44.8147V100.009H64.5685V44.8147ZM64.5685 118.822V134.024C64.5685 146.14 74.3906 155.963 86.5068 155.963H137.484C149.6 155.963 159.422 146.14 159.422 134.024V74.6115H153.778V134.024C153.778 143.023 146.483 150.319 137.484 150.319H86.5068C77.5076 150.319 70.2123 143.023 70.2123 134.024V118.822H64.5685Z" fill="#E00034"/>
<path d="M100.317 100.424C101.904 100.424 102.962 99.3656 102.962 97.6607V83.8156C102.962 74.5562 106.225 69.6178 111.398 68.5596V98.3662C111.398 99.6008 112.31 100.424 113.544 100.424C114.544 100.424 115.543 99.6008 115.543 98.3662V68.5008C120.922 69.4121 124.303 74.3798 124.303 83.8156V97.6607C124.303 99.3656 125.361 100.424 126.948 100.424C128.536 100.424 129.594 99.3656 129.594 97.6607V83.4629C129.594 71.1758 124.097 64.4149 115.543 63.5624V58.7417C115.543 57.4483 114.544 56.7428 113.544 56.7428C112.31 56.7428 111.398 57.4483 111.398 58.7417V63.5918C103.021 64.5913 97.671 71.3521 97.671 83.4629V97.6607C97.671 99.3656 98.7292 100.424 100.317 100.424Z" fill="#E00034"/>
</svg>
