<svg width="219" height="219" viewBox="0 0 219 219" fill="none" xmlns="http://www.w3.org/2000/svg">
<path d="M67.1641 95.5664C65.7855 94.6473 63.9229 95.0198 63.0039 96.3984C62.0848 97.777 62.4573 99.6396 63.8359 100.559L67.1641 95.5664ZM85.3513 111.297L87.0154 108.801L85.3513 111.297ZM108.649 111.297L106.985 108.801L108.649 111.297ZM130.164 100.559C131.543 99.6396 131.915 97.777 130.996 96.3984C130.077 95.0198 128.214 94.6473 126.836 95.5664L130.164 100.559ZM65.5 74.8125H128.5V68.8125H65.5V74.8125ZM146.5 92.8125V145.313H152.5V92.8125H146.5ZM128.5 163.313H65.5V169.313H128.5V163.313ZM47.5 145.313V92.8125H41.5V145.313H47.5ZM65.5 163.313C55.5589 163.313 47.5 155.254 47.5 145.313H41.5C41.5 158.567 52.2452 169.313 65.5 169.313V163.313ZM146.5 145.313C146.5 155.254 138.441 163.313 128.5 163.313V169.313C141.755 169.313 152.5 158.567 152.5 145.313H146.5ZM128.5 74.8125C138.441 74.8125 146.5 82.8714 146.5 92.8125H152.5C152.5 79.5577 141.755 68.8125 128.5 68.8125V74.8125ZM65.5 68.8125C52.2452 68.8125 41.5 79.5577 41.5 92.8125H47.5C47.5 82.8714 55.5589 74.8125 65.5 74.8125V68.8125ZM63.8359 100.559L83.6872 113.793L87.0154 108.801L67.1641 95.5664L63.8359 100.559ZM110.313 113.793L130.164 100.559L126.836 95.5664L106.985 108.801L110.313 113.793ZM83.6872 113.793C91.7488 119.167 102.251 119.167 110.313 113.793L106.985 108.801C100.938 112.831 93.0616 112.831 87.0154 108.801L83.6872 113.793Z" fill="#E00034"/>
<path fill-rule="evenodd" clip-rule="evenodd" d="M82.5 39.8125C69.2452 39.8125 58.5 50.5577 58.5 63.8125V74.0625H64.5V63.8125C64.5 53.8714 72.5589 45.8125 82.5 45.8125H145.5C155.441 45.8125 163.5 53.8714 163.5 63.8125V116.313C163.5 126.086 155.71 134.041 146 134.306V140.307C159.024 140.041 169.5 129.4 169.5 116.313V63.8125C169.5 50.5577 158.755 39.8125 145.5 39.8125H82.5ZM143.408 74.0625L147.164 71.5587C148.543 70.6396 148.915 68.777 147.996 67.3984C147.077 66.0198 145.214 65.6473 143.836 66.5664L132.592 74.0625H143.408ZM95.4083 74.0625L84.1641 66.5664C82.7855 65.6473 80.9229 66.0198 80.0039 67.3984C79.0848 68.777 79.4573 70.6396 80.8359 71.5587L84.5917 74.0625H95.4083Z" fill="#E00034"/>
<path fill-rule="evenodd" clip-rule="evenodd" d="M98.9375 12C85.6827 12 74.9375 22.7452 74.9375 36V46.25H80.9375V36C80.9375 26.0589 88.9964 18 98.9375 18H161.938C171.879 18 179.938 26.0589 179.938 36V88.5C179.938 98.2739 172.147 106.228 162.438 106.493V112.495C175.462 112.229 185.938 101.588 185.938 88.5V36C185.938 22.7452 175.192 12 161.938 12H98.9375ZM159.846 46.25L163.602 43.7462C164.98 42.8271 165.353 40.9645 164.434 39.5859C163.515 38.2073 161.652 37.8348 160.273 38.7539L149.029 46.25H159.846ZM111.846 46.25L100.602 38.7539C99.223 37.8348 97.3604 38.2073 96.4414 39.5859C95.5223 40.9645 95.8948 42.8271 97.2734 43.7462L101.029 46.25H111.846Z" fill="#E00034"/>
</svg>
