<svg width="36" height="36" viewBox="0 0 36 36" fill="none" xmlns="http://www.w3.org/2000/svg">
<path d="M26.4902 34.005C25.6952 34.005 24.6752 33.75 23.4002 33L18.9152 30.345C18.4502 30.075 17.5502 30.075 17.1002 30.345L12.6002 33C9.94518 34.575 8.38518 33.945 7.68018 33.435C6.99018 32.925 5.91018 31.62 6.61518 28.62L7.68018 24.015C7.80018 23.535 7.56018 22.71 7.20018 22.35L3.48018 18.63C1.62018 16.77 1.77018 15.18 2.02518 14.4C2.28018 13.62 3.09018 12.24 5.67018 11.805L10.4552 11.01C10.9052 10.935 11.5502 10.455 11.7452 10.05L14.4002 4.755C15.6002 2.34 17.1752 1.98 18.0002 1.98C18.8252 1.98 20.4002 2.34 21.6002 4.755L24.2402 10.035C24.4502 10.44 25.0952 10.92 25.5452 10.995L30.3302 11.79C32.9252 12.225 33.7352 13.605 33.9752 14.385C34.2152 15.165 34.3652 16.755 32.5202 18.615L28.8002 22.35C28.4402 22.71 28.2152 23.52 28.3202 24.015L29.3852 28.62C30.0752 31.62 29.0102 32.925 28.3202 33.435C27.9452 33.705 27.3452 34.005 26.4902 34.005ZM18.0002 27.885C18.7352 27.885 19.4702 28.065 20.0552 28.41L24.5402 31.065C25.8452 31.845 26.6702 31.845 26.9852 31.62C27.3002 31.395 27.5252 30.6 27.1952 29.13L26.1302 24.525C25.8452 23.28 26.3102 21.675 27.2102 20.76L30.9302 17.04C31.6652 16.305 31.9952 15.585 31.8452 15.09C31.6802 14.595 30.9902 14.19 29.9702 14.025L25.1852 13.23C24.0302 13.035 22.7702 12.105 22.2452 11.055L19.6052 5.775C19.1252 4.815 18.5252 4.245 18.0002 4.245C17.4752 4.245 16.8752 4.815 16.4102 5.775L13.7552 11.055C13.2302 12.105 11.9702 13.035 10.8152 13.23L6.04518 14.025C5.02518 14.19 4.33518 14.595 4.17018 15.09C4.00518 15.585 4.35018 16.32 5.08518 17.04L8.80518 20.76C9.70518 21.66 10.1702 23.28 9.88518 24.525L8.82018 29.13C8.47518 30.615 8.71518 31.395 9.03018 31.62C9.34518 31.845 10.1552 31.83 11.4752 31.065L15.9602 28.41C16.5302 28.065 17.2652 27.885 18.0002 27.885Z" fill="white"/>
</svg>
