<svg width="47" height="46" viewBox="0 0 47 46" fill="none" xmlns="http://www.w3.org/2000/svg">
<path d="M35.3567 46C34.2148 46 32.7497 45.6337 30.9183 44.5564L24.4761 40.7429C23.8082 40.355 22.5155 40.355 21.8691 40.7429L15.4054 44.5564C11.5918 46.8187 9.35107 45.9138 8.33843 45.1813C7.34733 44.4487 5.79604 42.5742 6.80868 38.2651L8.33843 31.6506C8.51079 30.9611 8.16606 29.7761 7.64897 29.259L2.30564 23.9157C-0.366023 21.244 -0.150566 18.9602 0.215711 17.8398C0.581987 16.7194 1.74545 14.7372 5.45131 14.1124L12.3244 12.9705C12.9707 12.8628 13.8972 12.1733 14.1773 11.5916L17.9909 3.98595C19.7145 0.517096 21.9768 0 23.1618 0C24.3469 0 26.6092 0.517096 28.3328 3.98595L32.1248 11.57C32.4265 12.1518 33.353 12.8412 33.9993 12.9489L40.8724 14.0909C44.5998 14.7157 45.7633 16.6979 46.108 17.8183C46.4527 18.9386 46.6682 21.2225 44.0181 23.8941L38.6747 29.259C38.1576 29.7761 37.8344 30.9396 37.9853 31.6506L39.515 38.2651C40.5061 42.5742 38.9764 44.4487 37.9853 45.1813C37.4466 45.5691 36.5848 46 35.3567 46Z" fill="#E00034"/>
</svg>
