<svg width="25" height="20" viewBox="0 0 25 20" fill="none" xmlns="http://www.w3.org/2000/svg">
<path d="M25 2.43548C24.0638 2.84187 23.0709 3.10862 22.0541 3.22687C23.1132 2.60486 23.9264 1.61988 24.3093 0.446295C23.3025 1.03174 22.201 1.44422 21.0523 1.66591C20.1167 0.689166 18.7838 0.0787354 17.3085 0.0787354C14.4759 0.0787354 12.1793 2.32907 12.1793 5.10457C12.1793 5.49854 12.2247 5.88209 12.3121 6.25003C8.04941 6.04036 4.27012 4.0395 1.74033 0.998735C1.29893 1.74103 1.046 2.60448 1.046 3.52543C1.046 5.26917 1.95156 6.80744 3.32773 7.70878C2.51323 7.68379 1.71665 7.46822 1.00449 7.08008C1.0042 7.10113 1.0042 7.12218 1.0042 7.14333C1.0042 9.57845 2.77217 11.6098 5.11846 12.0716C4.36317 12.2728 3.57093 12.3023 2.80225 12.1577C3.45488 14.1544 5.34912 15.6074 7.59346 15.6481C5.83809 16.9961 3.62646 17.7996 1.22354 17.7996C0.809473 17.7996 0.40127 17.7758 0 17.7294C2.26982 19.1554 4.96582 19.9874 7.8623 19.9874C17.2966 19.9874 22.4555 12.329 22.4555 5.68744C22.4555 5.46945 22.4506 5.25271 22.4406 5.0372C23.4448 4.3259 24.3114 3.44487 25 2.43548" fill="white"/>
</svg>
