<svg width="24" height="24" viewBox="0 0 24 24" fill="none" xmlns="http://www.w3.org/2000/svg">
<path d="M8.00096 12.0001C8.00096 9.79107 9.79134 7.9998 12.0005 7.9998C14.2096 7.9998 16.001 9.79107 16.001 12.0001C16.001 14.2092 14.2096 16.0004 12.0005 16.0004C9.79134 16.0004 8.00096 14.2092 8.00096 12.0001ZM5.83838 12.0001C5.83838 15.4033 8.59714 18.162 12.0005 18.162C15.4038 18.162 18.1626 15.4033 18.1626 12.0001C18.1626 8.59692 15.4038 5.83827 12.0005 5.83827C8.59714 5.83827 5.83838 8.59692 5.83838 12.0001ZM16.9665 5.59395C16.9662 6.38924 17.6106 7.0342 18.406 7.03452C19.2013 7.03484 19.8463 6.39039 19.8466 5.5951C19.8469 4.79981 19.2024 4.15484 18.4071 4.15452H18.4065C17.6116 4.15489 16.9672 4.79903 16.9665 5.59395ZM7.15229 21.7678C5.98229 21.7146 5.34636 21.5197 4.92375 21.355C4.36347 21.1369 3.96371 20.8771 3.54341 20.4574C3.1231 20.0377 2.86293 19.6384 2.64577 19.0781C2.48103 18.6557 2.28614 18.0196 2.23295 16.8497C2.17477 15.5848 2.16316 15.2048 2.16316 12.0002C2.16316 8.79564 2.17573 8.41673 2.23295 7.15078C2.28624 5.98083 2.48256 5.34598 2.64577 4.92233C2.86389 4.36207 3.12368 3.96233 3.54341 3.54204C3.96313 3.12175 4.36251 2.86159 4.92375 2.64444C5.34617 2.47971 5.98229 2.28483 7.15229 2.23164C8.41723 2.17347 8.79722 2.16185 12.0005 2.16185C15.2037 2.16185 15.5841 2.17443 16.8501 2.23164C18.0201 2.28492 18.655 2.48124 19.0787 2.64444C19.6389 2.86159 20.0387 3.12233 20.459 3.54204C20.8793 3.96175 21.1385 4.36207 21.3566 4.92233C21.5214 5.34473 21.7163 5.98083 21.7694 7.15078C21.8276 8.41673 21.8392 8.79564 21.8392 12.0002C21.8392 15.2048 21.8276 15.5837 21.7694 16.8497C21.7162 18.0196 21.5203 18.6555 21.3566 19.0781C21.1385 19.6384 20.8787 20.0381 20.459 20.4574C20.0393 20.8768 19.6389 21.1369 19.0787 21.355C18.6562 21.5198 18.0201 21.7147 16.8501 21.7678C15.5852 21.826 15.2052 21.8376 12.0005 21.8376C8.79578 21.8376 8.41685 21.826 7.15229 21.7678ZM7.05292 0.0727941C5.7754 0.13097 4.90244 0.33353 4.14007 0.63017C3.35053 0.936506 2.68216 1.34748 2.01426 2.0143C1.34636 2.68111 0.936421 3.35052 0.630073 4.14003C0.333421 4.90284 0.130853 5.77529 0.0726749 7.05276C0.0135365 8.33225 0 8.74131 0 12.0001C0 15.2589 0.0135365 15.668 0.0726749 16.9475C0.130853 18.225 0.333421 19.0974 0.630073 19.8602C0.936421 20.6492 1.34645 21.3194 2.01426 21.9859C2.68206 22.6525 3.35053 23.0629 4.14007 23.3701C4.90388 23.6667 5.7754 23.8693 7.05292 23.9275C8.33313 23.9856 8.74153 24.0001 12.0005 24.0001C15.2594 24.0001 15.6685 23.9866 16.948 23.9275C18.2257 23.8693 19.098 23.6667 19.8609 23.3701C20.6499 23.0629 21.3188 22.6528 21.9867 21.9859C22.6546 21.3191 23.0637 20.6492 23.3709 19.8602C23.6675 19.0974 23.8711 18.225 23.9283 16.9475C23.9865 15.667 24 15.2589 24 12.0001C24 8.74131 23.9865 8.33225 23.9283 7.05276C23.8701 5.77519 23.6675 4.90236 23.3709 4.14003C23.0637 3.351 22.6535 2.68217 21.9867 2.0143C21.3199 1.34643 20.6499 0.936506 19.8619 0.63017C19.098 0.33353 18.2256 0.13001 16.949 0.0727941C15.6695 0.0146181 15.2604 0.00012207 12.0014 0.00012207C8.74249 0.00012207 8.33313 0.0136581 7.05292 0.0727941Z" fill="white"/>
</svg>
