<svg width="219" height="219" viewBox="0 0 219 219" fill="none" xmlns="http://www.w3.org/2000/svg">
<path d="M43.968 112.56L33.92 83.12H24L39.872 126.192H47.552L64 83.12H54.08L43.968 112.56ZM77.7875 119.92C73.3075 119.92 71.3875 117.36 71.3875 110.64C71.3875 102.96 73.9475 100.08 78.4275 100.08C82.9075 100.08 84.8275 102.64 84.8275 109.36C84.8275 117.04 82.2675 119.92 77.7875 119.92ZM78.7475 93.36C67.8675 93.36 62.4275 99.44 62.4275 110.64C62.4275 121.84 68.5075 126.64 77.4675 126.64C88.3475 126.64 93.7875 120.56 93.7875 109.36C93.7875 98.16 87.7075 93.36 78.7475 93.36ZM109.632 83.12H100.48V126H127.744V118.32H109.632V83.12ZM158.121 90.8V83.12H123.881V90.8H136.425V126H145.577V90.8H158.121ZM172.132 90.8H190.628V83.12H162.98V126H190.884V118.32H172.132V107.76H186.852V100.08H172.132V90.8Z" fill="#E00034"/>
<path d="M43.968 112.56L43.0216 112.883L43.965 115.647L44.9138 112.885L43.968 112.56ZM33.92 83.12L34.8664 82.797L34.6353 82.12H33.92V83.12ZM24 83.12V82.12H22.5658L23.0617 83.4658L24 83.12ZM39.872 126.192L38.9337 126.538L39.1748 127.192H39.872V126.192ZM47.552 126.192V127.192H48.2406L48.4862 126.549L47.552 126.192ZM64 83.12L64.9342 83.4767L65.4523 82.12H64V83.12ZM54.08 83.12V82.12H53.3661L53.1342 82.7951L54.08 83.12ZM44.9144 112.237L34.8664 82.797L32.9736 83.443L43.0216 112.883L44.9144 112.237ZM33.92 82.12H24V84.12H33.92V82.12ZM23.0617 83.4658L38.9337 126.538L40.8103 125.846L24.9383 82.7742L23.0617 83.4658ZM39.872 127.192H47.552V125.192H39.872V127.192ZM48.4862 126.549L64.9342 83.4767L63.0658 82.7633L46.6178 125.835L48.4862 126.549ZM64 82.12H54.08V84.12H64V82.12ZM53.1342 82.7951L43.0222 112.235L44.9138 112.885L55.0258 83.4448L53.1342 82.7951ZM77.7875 118.92C75.7499 118.92 74.5173 118.352 73.7257 117.225C72.8707 116.008 72.3875 113.953 72.3875 110.64H70.3875C70.3875 114.047 70.8643 116.632 72.0893 118.375C73.3777 120.208 75.3451 120.92 77.7875 120.92V118.92ZM72.3875 110.64C72.3875 106.875 73.0219 104.488 74.0412 103.061C75.0091 101.706 76.4255 101.08 78.4275 101.08V99.08C75.9495 99.08 73.8459 99.8937 72.4138 101.899C71.0331 103.832 70.3875 106.725 70.3875 110.64H72.3875ZM78.4275 101.08C80.4651 101.08 81.6977 101.648 82.4893 102.775C83.3443 103.992 83.8275 106.047 83.8275 109.36H85.8275C85.8275 105.953 85.3507 103.368 84.1257 101.625C82.8373 99.7916 80.8699 99.08 78.4275 99.08V101.08ZM83.8275 109.36C83.8275 113.125 83.1931 115.512 82.1738 116.939C81.2059 118.294 79.7895 118.92 77.7875 118.92V120.92C80.2655 120.92 82.3691 120.106 83.8012 118.101C85.1819 116.168 85.8275 113.275 85.8275 109.36H83.8275ZM78.7475 92.36C73.1236 92.36 68.7405 93.9357 65.7758 97.1184C62.8228 100.289 61.4275 104.893 61.4275 110.64H63.4275C63.4275 105.187 64.7523 101.151 67.2392 98.4816C69.7145 95.8243 73.4914 94.36 78.7475 94.36V92.36ZM61.4275 110.64C61.4275 116.416 62.9983 120.709 65.8858 123.552C68.7697 126.393 72.8173 127.64 77.4675 127.64V125.64C73.1577 125.64 69.6853 124.487 67.2892 122.128C64.8967 119.771 63.4275 116.064 63.4275 110.64H61.4275ZM77.4675 127.64C83.0914 127.64 87.4745 126.064 90.4392 122.882C93.3923 119.711 94.7875 115.107 94.7875 109.36H92.7875C92.7875 114.813 91.4628 118.849 88.9758 121.518C86.5005 124.176 82.7236 125.64 77.4675 125.64V127.64ZM94.7875 109.36C94.7875 103.584 93.2167 99.2913 90.3292 96.4475C87.4453 93.6073 83.3977 92.36 78.7475 92.36V94.36C83.0573 94.36 86.5297 95.5127 88.9258 97.8725C91.3183 100.229 92.7875 103.936 92.7875 109.36H94.7875ZM109.632 83.12H110.632V82.12H109.632V83.12ZM100.48 83.12V82.12H99.48V83.12H100.48ZM100.48 126H99.48V127H100.48V126ZM127.744 126V127H128.744V126H127.744ZM127.744 118.32H128.744V117.32H127.744V118.32ZM109.632 118.32H108.632V119.32H109.632V118.32ZM109.632 82.12H100.48V84.12H109.632V82.12ZM99.48 83.12V126H101.48V83.12H99.48ZM100.48 127H127.744V125H100.48V127ZM128.744 126V118.32H126.744V126H128.744ZM127.744 117.32H109.632V119.32H127.744V117.32ZM110.632 118.32V83.12H108.632V118.32H110.632ZM158.121 90.8V91.8H159.121V90.8H158.121ZM158.121 83.12H159.121V82.12H158.121V83.12ZM123.881 83.12V82.12H122.881V83.12H123.881ZM123.881 90.8H122.881V91.8H123.881V90.8ZM136.425 90.8H137.425V89.8H136.425V90.8ZM136.425 126H135.425V127H136.425V126ZM145.577 126V127H146.577V126H145.577ZM145.577 90.8V89.8H144.577V90.8H145.577ZM159.121 90.8V83.12H157.121V90.8H159.121ZM158.121 82.12H123.881V84.12H158.121V82.12ZM122.881 83.12V90.8H124.881V83.12H122.881ZM123.881 91.8H136.425V89.8H123.881V91.8ZM135.425 90.8V126H137.425V90.8H135.425ZM136.425 127H145.577V125H136.425V127ZM146.577 126V90.8H144.577V126H146.577ZM145.577 91.8H158.121V89.8H145.577V91.8ZM172.132 90.8V89.8H171.132V90.8H172.132ZM190.628 90.8V91.8H191.628V90.8H190.628ZM190.628 83.12H191.628V82.12H190.628V83.12ZM162.98 83.12V82.12H161.98V83.12H162.98ZM162.98 126H161.98V127H162.98V126ZM190.884 126V127H191.884V126H190.884ZM190.884 118.32H191.884V117.32H190.884V118.32ZM172.132 118.32H171.132V119.32H172.132V118.32ZM172.132 107.76V106.76H171.132V107.76H172.132ZM186.852 107.76V108.76H187.852V107.76H186.852ZM186.852 100.08H187.852V99.08H186.852V100.08ZM172.132 100.08H171.132V101.08H172.132V100.08ZM172.132 91.8H190.628V89.8H172.132V91.8ZM191.628 90.8V83.12H189.628V90.8H191.628ZM190.628 82.12H162.98V84.12H190.628V82.12ZM161.98 83.12V126H163.98V83.12H161.98ZM162.98 127H190.884V125H162.98V127ZM191.884 126V118.32H189.884V126H191.884ZM190.884 117.32H172.132V119.32H190.884V117.32ZM173.132 118.32V107.76H171.132V118.32H173.132ZM172.132 108.76H186.852V106.76H172.132V108.76ZM187.852 107.76V100.08H185.852V107.76H187.852ZM186.852 99.08H172.132V101.08H186.852V99.08ZM173.132 100.08V90.8H171.132V100.08H173.132Z" fill="#E00034"/>
</svg>
