<svg width="24" height="20" viewBox="0 0 24 20" fill="none" xmlns="http://www.w3.org/2000/svg">
<path d="M23.1777 3.21708C22.9094 2.21375 22.1184 1.42275 21.115 1.15441C19.295 0.666748 11.9987 0.666748 11.9987 0.666748C11.9987 0.666748 4.70236 0.666748 2.88236 1.15441C1.87903 1.42275 1.08803 2.21375 0.819698 3.21708C0.332031 5.03708 0.332031 10.0001 0.332031 10.0001C0.332031 10.0001 0.332031 14.9631 0.819698 16.7831C1.08803 17.7864 1.87903 18.5774 2.88236 18.8457C4.70236 19.3334 11.9987 19.3334 11.9987 19.3334C11.9987 19.3334 19.295 19.3334 21.115 18.8457C22.1195 18.5774 22.9094 17.7864 23.1777 16.7831C23.6654 14.9631 23.6654 10.0001 23.6654 10.0001C23.6654 10.0001 23.6654 5.03708 23.1777 3.21708ZM9.66537 14.0414V5.95875L16.6654 10.0001L9.66537 14.0414Z" fill="white"/>
</svg>
