<svg width="148" height="48" viewBox="0 0 148 48" fill="none" xmlns="http://www.w3.org/2000/svg">
<rect x="0.5" y="0.5" width="147" height="47" rx="7.5" fill="white"/>
<path d="M53.565 13.4096C53.565 14.2361 53.3647 14.9594 52.8638 15.476C52.2628 16.0959 51.5616 16.4059 50.66 16.4059C49.7585 16.4059 49.0573 16.0959 48.4562 15.476C47.8552 14.8561 47.5547 14.1328 47.5547 13.2029C47.5547 12.273 47.8552 11.5498 48.4562 10.9299C49.0573 10.31 49.7585 10 50.66 10C51.0607 10 51.4614 10.1033 51.8621 10.31C52.2628 10.5166 52.5633 10.7232 52.7637 11.0332L52.2628 11.5498C51.8621 11.0332 51.3612 10.8266 50.66 10.8266C50.059 10.8266 49.458 11.0332 49.0573 11.5498C48.5564 11.9631 48.3561 12.583 48.3561 13.3063C48.3561 14.0295 48.5564 14.6494 49.0573 15.0627C49.5581 15.476 50.059 15.7859 50.66 15.7859C51.3612 15.7859 51.8621 15.5793 52.363 15.0627C52.6635 14.7527 52.8638 14.3395 52.8638 13.8229H50.66V13.0996H53.565C53.565 13.0996 53.565 13.3063 53.565 13.4096Z" fill="#333333" stroke="#333333" stroke-width="0.2" stroke-miterlimit="10"/>
<path d="M58.174 10.8267H55.4693V12.7898H57.9737V13.513H55.4693V15.4761H58.174V16.3026H54.668V10.1034H58.174V10.8267Z" fill="#333333" stroke="#333333" stroke-width="0.2" stroke-miterlimit="10"/>
<path d="M61.477 16.3026H60.6756V10.8267H58.9727V10.1034H63.1799V10.8267H61.477V16.3026Z" fill="#333333" stroke="#333333" stroke-width="0.2" stroke-miterlimit="10"/>
<path d="M66.0859 16.3026V10.1034H66.8873V16.3026H66.0859Z" fill="#333333" stroke="#333333" stroke-width="0.2" stroke-miterlimit="10"/>
<path d="M70.2934 16.3026H69.492V10.8267H67.7891V10.1034H71.8961V10.8267H70.1932V16.3026H70.2934Z" fill="#333333" stroke="#333333" stroke-width="0.2" stroke-miterlimit="10"/>
<path d="M79.8091 15.476C79.2081 16.0959 78.5069 16.4059 77.6053 16.4059C76.7038 16.4059 76.0026 16.0959 75.4015 15.476C74.8005 14.8561 74.5 14.1328 74.5 13.2029C74.5 12.273 74.8005 11.5498 75.4015 10.9299C76.0026 10.31 76.7038 10 77.6053 10C78.5069 10 79.2081 10.31 79.8091 10.9299C80.4102 11.5498 80.7107 12.273 80.7107 13.2029C80.7107 14.1328 80.4102 14.8561 79.8091 15.476ZM76.0026 14.9594C76.4033 15.3727 77.0043 15.6826 77.6053 15.6826C78.2064 15.6826 78.8074 15.476 79.2081 14.9594C79.6088 14.5461 79.9093 13.9262 79.9093 13.2029C79.9093 12.4797 79.709 11.8598 79.2081 11.4465C78.8074 11.0332 78.2064 10.7232 77.6053 10.7232C77.0043 10.7232 76.4033 10.9299 76.0026 11.4465C75.6019 11.8598 75.3014 12.4797 75.3014 13.2029C75.3014 13.9262 75.5017 14.5461 76.0026 14.9594Z" fill="#333333" stroke="#333333" stroke-width="0.2" stroke-miterlimit="10"/>
<path d="M81.8125 16.3026V10.1034H82.7141L85.6191 14.9595V13.7196V10.1034H86.4204V16.3026H85.6191L82.5137 11.2399V12.4798V16.3026H81.8125Z" fill="#333333" stroke="#333333" stroke-width="0.2" stroke-miterlimit="10"/>
<mask id="path-9-inside-1_845_38012" fill="white">
<path d="M74.3005 25.3949C71.8964 25.3949 69.9931 27.2547 69.9931 29.8377C69.9931 32.3174 71.8964 34.2805 74.3005 34.2805C76.7046 34.2805 78.6079 32.4207 78.6079 29.8377C78.6079 27.1514 76.7046 25.3949 74.3005 25.3949ZM74.3005 32.4207C72.9983 32.4207 71.8964 31.2842 71.8964 29.7344C71.8964 28.1846 72.9983 27.0481 74.3005 27.0481C75.6027 27.0481 76.7046 28.0813 76.7046 29.7344C76.7046 31.2842 75.6027 32.4207 74.3005 32.4207ZM64.9845 25.3949C62.5803 25.3949 60.677 27.2547 60.677 29.8377C60.677 32.3174 62.5803 34.2805 64.9845 34.2805C67.3886 34.2805 69.2919 32.4207 69.2919 29.8377C69.2919 27.1514 67.3886 25.3949 64.9845 25.3949ZM64.9845 32.4207C63.6822 32.4207 62.5803 31.2842 62.5803 29.7344C62.5803 28.1846 63.6822 27.0481 64.9845 27.0481C66.2867 27.0481 67.3886 28.0813 67.3886 29.7344C67.3886 31.2842 66.2867 32.4207 64.9845 32.4207ZM53.8653 26.7381V28.5979H58.1727C58.0725 29.6311 57.6719 30.4576 57.171 30.9742C56.57 31.5941 55.5682 32.3174 53.8653 32.3174C51.1606 32.3174 49.1572 30.1477 49.1572 27.358C49.1572 24.5684 51.2608 22.3986 53.8653 22.3986C55.2677 22.3986 56.3696 23.0186 57.171 23.7418L58.4732 22.3986C57.3713 21.3654 55.9689 20.5389 53.9655 20.5389C50.3593 20.5389 47.2539 23.6385 47.2539 27.358C47.2539 31.0775 50.3593 34.1771 53.9655 34.1771C55.9689 34.1771 57.3713 33.5572 58.5734 32.2141C59.7755 30.9742 60.1762 29.2178 60.1762 27.8746C60.1762 27.4613 60.1762 27.048 60.076 26.7381H53.8653ZM99.3436 28.1846C98.9429 27.1514 97.9412 25.3949 95.7374 25.3949C93.5336 25.3949 91.7305 27.1514 91.7305 29.8377C91.7305 32.3174 93.5336 34.2805 95.9378 34.2805C97.841 34.2805 99.0431 33.0406 99.4438 32.3174L98.0414 31.2842C97.5405 32.0074 96.9395 32.524 95.9378 32.524C94.936 32.524 94.335 32.1107 93.8341 31.1809L99.544 28.7012L99.3436 28.1846ZM93.5336 29.6311C93.5336 27.9779 94.8359 27.0481 95.7374 27.0481C96.4386 27.0481 97.1398 27.4613 97.3402 27.9779L93.5336 29.6311ZM88.8255 33.8672H90.7288V20.9522H88.8255V33.8672ZM85.8203 26.3248C85.3195 25.8082 84.5181 25.2916 83.5164 25.2916C81.4128 25.2916 79.4093 27.2547 79.4093 29.7344C79.4093 32.2141 81.3126 34.0738 83.5164 34.0738C84.5181 34.0738 85.3195 33.5572 85.7202 33.0406H85.8203V33.6605C85.8203 35.3137 84.9188 36.2436 83.5164 36.2436C82.4145 36.2436 81.6131 35.417 81.4127 34.6938L79.81 35.417C80.3108 36.5535 81.5129 38 83.6165 38C85.8203 38 87.6234 36.6568 87.6234 33.4539V25.6016H85.8203V26.3248ZM83.6165 32.4207C82.3143 32.4207 81.2124 31.2842 81.2124 29.7344C81.2124 28.1846 82.3143 27.0481 83.6165 27.0481C84.9188 27.0481 85.9205 28.1846 85.9205 29.7344C85.9205 31.2842 84.9188 32.4207 83.6165 32.4207ZM108.059 20.9522H103.551V33.8672H105.454V29.0111H108.059C110.162 29.0111 112.166 27.4613 112.166 24.9816C112.166 22.502 110.162 20.9522 108.059 20.9522ZM108.159 27.1514H105.454V22.7086H108.159C109.561 22.7086 110.363 23.9484 110.363 24.8783C110.262 26.0148 109.461 27.1514 108.159 27.1514ZM119.679 25.2916C118.276 25.2916 116.874 25.9115 116.373 27.2547L118.076 27.9779C118.477 27.2547 119.078 27.0481 119.779 27.0481C120.781 27.0481 121.682 27.668 121.782 28.7012V28.8045C121.482 28.5979 120.68 28.2879 119.879 28.2879C118.076 28.2879 116.273 29.3211 116.273 31.1809C116.273 32.9373 117.775 34.0738 119.378 34.0738C120.68 34.0738 121.281 33.4539 121.782 32.834H121.882V33.8672H123.686V28.9078C123.485 26.6348 121.782 25.2916 119.679 25.2916ZM119.478 32.4207C118.877 32.4207 117.976 32.1107 117.976 31.2842C117.976 30.251 119.078 29.941 119.979 29.941C120.781 29.941 121.181 30.1477 121.682 30.3543C121.482 31.5941 120.48 32.4207 119.478 32.4207ZM129.996 25.6016L127.893 31.1809H127.793L125.589 25.6016H123.585L126.891 33.4539L124.988 37.7934H126.891L132 25.6016H129.996ZM113.167 33.8672H115.071V20.9522H113.167V33.8672Z"/>
</mask>
<path d="M74.3005 25.3949C71.8964 25.3949 69.9931 27.2547 69.9931 29.8377C69.9931 32.3174 71.8964 34.2805 74.3005 34.2805C76.7046 34.2805 78.6079 32.4207 78.6079 29.8377C78.6079 27.1514 76.7046 25.3949 74.3005 25.3949ZM74.3005 32.4207C72.9983 32.4207 71.8964 31.2842 71.8964 29.7344C71.8964 28.1846 72.9983 27.0481 74.3005 27.0481C75.6027 27.0481 76.7046 28.0813 76.7046 29.7344C76.7046 31.2842 75.6027 32.4207 74.3005 32.4207ZM64.9845 25.3949C62.5803 25.3949 60.677 27.2547 60.677 29.8377C60.677 32.3174 62.5803 34.2805 64.9845 34.2805C67.3886 34.2805 69.2919 32.4207 69.2919 29.8377C69.2919 27.1514 67.3886 25.3949 64.9845 25.3949ZM64.9845 32.4207C63.6822 32.4207 62.5803 31.2842 62.5803 29.7344C62.5803 28.1846 63.6822 27.0481 64.9845 27.0481C66.2867 27.0481 67.3886 28.0813 67.3886 29.7344C67.3886 31.2842 66.2867 32.4207 64.9845 32.4207ZM53.8653 26.7381V28.5979H58.1727C58.0725 29.6311 57.6719 30.4576 57.171 30.9742C56.57 31.5941 55.5682 32.3174 53.8653 32.3174C51.1606 32.3174 49.1572 30.1477 49.1572 27.358C49.1572 24.5684 51.2608 22.3986 53.8653 22.3986C55.2677 22.3986 56.3696 23.0186 57.171 23.7418L58.4732 22.3986C57.3713 21.3654 55.9689 20.5389 53.9655 20.5389C50.3593 20.5389 47.2539 23.6385 47.2539 27.358C47.2539 31.0775 50.3593 34.1771 53.9655 34.1771C55.9689 34.1771 57.3713 33.5572 58.5734 32.2141C59.7755 30.9742 60.1762 29.2178 60.1762 27.8746C60.1762 27.4613 60.1762 27.048 60.076 26.7381H53.8653ZM99.3436 28.1846C98.9429 27.1514 97.9412 25.3949 95.7374 25.3949C93.5336 25.3949 91.7305 27.1514 91.7305 29.8377C91.7305 32.3174 93.5336 34.2805 95.9378 34.2805C97.841 34.2805 99.0431 33.0406 99.4438 32.3174L98.0414 31.2842C97.5405 32.0074 96.9395 32.524 95.9378 32.524C94.936 32.524 94.335 32.1107 93.8341 31.1809L99.544 28.7012L99.3436 28.1846ZM93.5336 29.6311C93.5336 27.9779 94.8359 27.0481 95.7374 27.0481C96.4386 27.0481 97.1398 27.4613 97.3402 27.9779L93.5336 29.6311ZM88.8255 33.8672H90.7288V20.9522H88.8255V33.8672ZM85.8203 26.3248C85.3195 25.8082 84.5181 25.2916 83.5164 25.2916C81.4128 25.2916 79.4093 27.2547 79.4093 29.7344C79.4093 32.2141 81.3126 34.0738 83.5164 34.0738C84.5181 34.0738 85.3195 33.5572 85.7202 33.0406H85.8203V33.6605C85.8203 35.3137 84.9188 36.2436 83.5164 36.2436C82.4145 36.2436 81.6131 35.417 81.4127 34.6938L79.81 35.417C80.3108 36.5535 81.5129 38 83.6165 38C85.8203 38 87.6234 36.6568 87.6234 33.4539V25.6016H85.8203V26.3248ZM83.6165 32.4207C82.3143 32.4207 81.2124 31.2842 81.2124 29.7344C81.2124 28.1846 82.3143 27.0481 83.6165 27.0481C84.9188 27.0481 85.9205 28.1846 85.9205 29.7344C85.9205 31.2842 84.9188 32.4207 83.6165 32.4207ZM108.059 20.9522H103.551V33.8672H105.454V29.0111H108.059C110.162 29.0111 112.166 27.4613 112.166 24.9816C112.166 22.502 110.162 20.9522 108.059 20.9522ZM108.159 27.1514H105.454V22.7086H108.159C109.561 22.7086 110.363 23.9484 110.363 24.8783C110.262 26.0148 109.461 27.1514 108.159 27.1514ZM119.679 25.2916C118.276 25.2916 116.874 25.9115 116.373 27.2547L118.076 27.9779C118.477 27.2547 119.078 27.0481 119.779 27.0481C120.781 27.0481 121.682 27.668 121.782 28.7012V28.8045C121.482 28.5979 120.68 28.2879 119.879 28.2879C118.076 28.2879 116.273 29.3211 116.273 31.1809C116.273 32.9373 117.775 34.0738 119.378 34.0738C120.68 34.0738 121.281 33.4539 121.782 32.834H121.882V33.8672H123.686V28.9078C123.485 26.6348 121.782 25.2916 119.679 25.2916ZM119.478 32.4207C118.877 32.4207 117.976 32.1107 117.976 31.2842C117.976 30.251 119.078 29.941 119.979 29.941C120.781 29.941 121.181 30.1477 121.682 30.3543C121.482 31.5941 120.48 32.4207 119.478 32.4207ZM129.996 25.6016L127.893 31.1809H127.793L125.589 25.6016H123.585L126.891 33.4539L124.988 37.7934H126.891L132 25.6016H129.996ZM113.167 33.8672H115.071V20.9522H113.167V33.8672Z" fill="#333333" stroke="#333333" stroke-width="2" mask="url(#path-9-inside-1_845_38012)"/>
<path d="M16.5009 10.6199C16.2003 10.9299 16 11.4465 16 12.0664V34.9002C16 35.5201 16.2003 36.0367 16.5009 36.3466L16.601 36.45L29.0224 23.6383V23.5349V23.4316L16.5009 10.6199Z" fill="url(#paint0_linear_845_38012)"/>
<path d="M33.1305 27.9776L29.0234 23.7415V23.5349V23.4315L33.1305 19.1954L33.2307 19.2987L38.1391 22.1917C39.5416 23.0183 39.5416 24.3614 38.1391 25.188L33.1305 27.9776Z" fill="url(#paint1_linear_845_38012)"/>
<path d="M33.2288 27.8745L29.0216 23.5351L16.5 36.4501C17.0009 36.9667 17.7021 36.9667 18.6036 36.5534L33.2288 27.8745Z" fill="url(#paint2_linear_845_38012)"/>
<path d="M33.2288 19.1956L18.6036 10.62C17.7021 10.1034 17.0009 10.2067 16.5 10.7233L29.0216 23.535L33.2288 19.1956Z" fill="url(#paint3_linear_845_38012)"/>
<path opacity="0.2" d="M33.1325 27.7713L18.6075 36.2436C17.8061 36.7602 17.1049 36.6568 16.6041 36.2436L16.5039 36.3469L16.6041 36.4502C17.1049 36.8635 17.8061 36.9668 18.6075 36.4502L33.1325 27.7713Z" fill="black"/>
<path opacity="0.12" d="M16.5016 36.2435C16.2016 35.9336 16.1016 35.417 16.1016 34.7971V34.9004C16.1016 35.5203 16.3016 36.0369 16.6016 36.3469V36.2435H16.5016Z" fill="black"/>
<path opacity="0.12" d="M38.1375 24.8782L33.1289 27.7712L33.2291 27.8745L38.1375 24.9815C38.8387 24.5683 39.1393 24.0517 39.1393 23.5351C39.1393 24.0517 38.7386 24.4649 38.1375 24.8782Z" fill="black"/>
<path opacity="0.25" d="M18.6059 10.7232L38.1395 22.1918C38.7406 22.605 39.1412 23.0183 39.1412 23.5349C39.1412 23.0183 38.8407 22.5017 38.1395 22.0884L18.6059 10.6199C17.2035 9.79333 16.1016 10.5166 16.1016 12.1697V12.273C16.1016 10.6199 17.2035 9.89665 18.6059 10.7232Z" fill="white"/>
<rect x="0.5" y="0.5" width="147" height="47" rx="7.5" stroke="#D6D6D6"/>
<defs>
<linearGradient id="paint0_linear_845_38012" x1="27.9202" y1="11.8698" x2="10.5889" y2="28.6731" gradientUnits="userSpaceOnUse">
<stop stop-color="#00A0FF"/>
<stop offset="0.00657445" stop-color="#00A1FF"/>
<stop offset="0.2601" stop-color="#00BEFF"/>
<stop offset="0.5122" stop-color="#00D2FF"/>
<stop offset="0.7604" stop-color="#00DFFF"/>
<stop offset="1" stop-color="#00E3FF"/>
</linearGradient>
<linearGradient id="paint1_linear_845_38012" x1="39.9767" y1="23.5363" x2="15.7381" y2="23.5363" gradientUnits="userSpaceOnUse">
<stop stop-color="#FFE000"/>
<stop offset="0.4087" stop-color="#FFBD00"/>
<stop offset="0.7754" stop-color="#FFA500"/>
<stop offset="1" stop-color="#FF9C00"/>
</linearGradient>
<linearGradient id="paint2_linear_845_38012" x1="30.9519" y1="25.9074" x2="7.4492" y2="48.6941" gradientUnits="userSpaceOnUse">
<stop stop-color="#FF3A44"/>
<stop offset="1" stop-color="#C31162"/>
</linearGradient>
<linearGradient id="paint3_linear_845_38012" x1="13.3919" y1="3.05303" x2="23.8869" y2="13.2282" gradientUnits="userSpaceOnUse">
<stop stop-color="#32A071"/>
<stop offset="0.0685" stop-color="#2DA771"/>
<stop offset="0.4762" stop-color="#15CF74"/>
<stop offset="0.8009" stop-color="#06E775"/>
<stop offset="1" stop-color="#00F076"/>
</linearGradient>
</defs>
</svg>
